<svg version="1.1" id="Layer_1" xmlns="http://www.w3.org/2000/svg" xmlns:xlink="http://www.w3.org/1999/xlink" x="0px" y="0px"
	 width="100%" viewBox="0 0 235 235" enable-background="new 0 0 235 235" xml:space="preserve">
<path fill="#010101" opacity="1.000000" stroke="none" 
	d="
M158.242493,235.691284 
	C131.645767,236.000000 105.291542,236.000000 78.468658,236.000000 
	C76.229233,233.957458 77.223228,232.019104 78.300110,230.152222 
	C79.115807,228.738144 80.280464,227.456696 79.031525,225.376770 
	C77.748940,223.074905 77.091469,220.918701 76.479149,218.331848 
	C75.212730,213.095139 75.045074,208.292984 77.269623,203.244934 
	C78.185944,200.319763 79.667839,198.121613 81.060791,195.888947 
	C82.577896,193.457291 83.759117,191.024963 83.016151,187.997574 
	C82.616028,186.367157 82.730690,184.543457 84.040611,183.352188 
	C88.266258,179.509201 89.727562,174.193375 92.008698,168.870071 
	C96.932793,158.231964 99.768143,147.379501 101.675003,135.829132 
	C101.822662,134.552261 102.100212,133.750778 102.912971,132.730545 
	C108.749619,131.308090 110.171829,132.326263 110.495964,137.811798 
	C110.701065,141.283081 110.560905,144.764984 110.595406,148.241913 
	C110.624229,151.146851 111.993446,152.487808 114.869102,152.411926 
	C115.860718,152.385742 116.855644,152.437210 117.849136,152.431610 
	C124.036926,152.396759 124.343658,152.106140 124.427673,146.052994 
	C124.464439,143.403976 124.352814,140.751465 124.486504,138.105667 
	C124.763908,132.615952 125.814011,131.712891 131.940765,132.024124 
	C134.166275,133.044083 134.171814,134.922012 134.864487,136.874847 
	C135.354050,139.018280 135.341385,140.883835 136.628174,142.771515 
	C138.128891,152.234558 141.798004,160.562759 145.647308,169.219177 
	C148.326965,174.294266 149.054977,180.070663 153.991699,183.415161 
	C154.812057,183.970917 155.314850,185.221375 154.995956,186.091766 
	C152.667740,192.446716 156.883041,197.121857 159.130066,202.692596 
	C161.873566,210.206528 161.731232,217.257797 158.321457,224.129166 
	C157.299423,226.188736 156.993179,228.104874 158.205627,230.210297 
	C159.137268,231.828110 159.500488,233.599777 158.242493,235.691284 
z"/>
<path fill="#BDBDBD" opacity="1.000000" stroke="none" 
	d="
M168.701569,1.387614 
	C180.020889,1.000000 191.041794,1.000000 202.531342,1.000000 
	C204.051239,2.153361 204.504471,3.558774 204.509079,5.070265 
	C204.537003,14.262712 205.060242,23.461655 204.038361,33.112152 
	C203.603287,34.180714 203.219864,34.706638 202.331970,35.433548 
	C193.132324,37.432732 184.270477,36.437012 174.956177,36.260082 
	C172.679993,35.549492 170.706451,35.438953 168.703400,34.053268 
	C166.313095,26.714811 167.666809,19.573656 167.422043,12.514670 
	C167.298004,8.936974 166.699142,5.223831 168.701569,1.387614 
z"/>
<path fill="#7E7E7E" opacity="1.000000" stroke="none" 
	d="
M1.390338,35.300644 
	C1.000000,24.569050 1.102401,14.136343 0.923473,3.708463 
	C0.882000,1.291445 1.478852,0.899405 3.757696,0.934985 
	C13.523983,1.087469 23.294016,1.000000 33.531342,1.000000 
	C35.197651,2.297926 35.556648,3.908831 35.553902,5.585985 
	C35.539036,14.664383 35.991005,23.747776 35.157913,33.297035 
	C34.868958,34.069660 34.717503,34.364872 34.226265,35.024460 
	C32.444099,36.388668 30.770292,36.639233 29.108282,36.566822 
	C20.001480,36.170044 10.821012,37.822865 1.390338,35.300644 
z"/>
<path fill="#BDBDBD" opacity="1.000000" stroke="none" 
	d="
M1.000000,35.468658 
	C11.696743,34.980022 22.393486,34.960041 33.884232,35.333775 
	C36.416962,40.586521 35.451317,45.621483 35.539722,50.571014 
	C35.637615,56.051556 35.916077,61.551525 35.134560,67.495804 
	C34.843933,68.255234 34.691277,68.545395 34.189247,69.184258 
	C31.385321,70.925430 28.666765,70.732140 26.042414,70.601608 
	C17.956886,70.199455 9.787685,71.777237 1.389474,69.299927 
	C1.000000,57.979107 1.000000,46.958210 1.000000,35.468658 
z"/>
<path fill="#BDBDBD" opacity="1.000000" stroke="none" 
	d="
M235.606400,34.696083 
	C236.000000,46.020893 236.000000,57.041790 236.000000,68.531342 
	C234.975449,69.931183 233.740143,70.467949 232.388428,70.469620 
	C222.960220,70.481262 213.517365,71.289688 203.663818,69.781715 
	C202.974960,69.332893 202.733109,69.104607 202.250366,68.439682 
	C201.181793,57.243324 200.499969,46.485260 202.667145,35.355865 
	C203.478088,34.539566 204.028473,34.003490 204.653549,33.958645 
	C214.850510,33.227184 225.053268,32.415672 235.606400,34.696083 
z"/>
<path fill="#7E7E7E" opacity="1.000000" stroke="none" 
	d="
M236.000000,34.531342 
	C225.307480,34.975101 214.614944,34.950203 203.419815,34.480415 
	C202.944611,23.336121 202.972000,12.636717 202.999695,1.468657 
	C213.099808,1.000000 223.201599,1.107929 233.297989,0.921913 
	C235.733871,0.877035 236.095871,1.504055 236.063278,3.764166 
	C235.917709,13.861876 236.000000,23.962873 236.000000,34.531342 
z"/>
<path fill="#BDBDBD" opacity="1.000000" stroke="none" 
	d="
M1.385562,203.296112 
	C1.000000,191.979111 1.000000,180.958206 1.000000,169.468658 
	C2.020866,168.073273 3.250131,167.538620 4.597335,167.532959 
	C13.992765,167.493561 23.399727,166.770950 33.225418,168.153931 
	C33.923790,168.570709 34.173805,168.782684 34.672920,169.416779 
	C36.152115,180.354004 35.727310,190.882858 35.022614,201.874359 
	C34.684387,202.611359 34.508125,202.886719 33.937187,203.454102 
	C22.945305,205.086945 12.353251,205.364075 1.385562,203.296112 
z"/>
<path fill="#BDBDBD" opacity="1.000000" stroke="none" 
	d="
M235.608932,168.698639 
	C236.000000,180.020889 236.000000,191.041794 236.000000,202.531342 
	C235.241760,203.665390 234.381836,204.284576 233.387146,204.311768 
	C223.525940,204.581314 213.651321,205.453247 203.406006,203.534363 
	C201.740189,201.963593 201.468948,200.298645 201.460754,198.629959 
	C201.415817,189.476135 201.043472,180.318771 201.804626,170.689606 
	C202.082031,169.907578 202.223557,169.605927 202.696487,168.929657 
	C204.621368,167.505722 206.447372,167.327621 208.249527,167.413284 
	C217.235718,167.840469 226.299576,166.167542 235.608932,168.698639 
z"/>
<path fill="#BDBDBD" opacity="1.000000" stroke="none" 
	d="
M203.294617,235.616638 
	C191.979111,236.000000 180.958206,236.000000 169.468658,236.000000 
	C167.798492,234.687912 167.461182,233.064362 167.460434,231.375107 
	C167.456680,222.897415 167.091736,214.416168 167.781342,205.485687 
	C168.080521,204.440338 168.360199,203.897049 169.046753,203.088409 
	C170.344040,202.088120 171.457367,201.922958 173.012421,201.984146 
	C175.076599,202.382080 176.737595,202.941635 178.811081,202.185303 
	C180.581619,201.785812 182.008972,201.698608 183.777496,202.068436 
	C184.653122,202.192993 184.845001,203.352890 185.920349,202.491913 
	C186.876556,202.132858 187.549011,202.083878 188.570663,202.166443 
	C190.038574,202.517212 191.158218,202.497345 192.626984,202.025513 
	C194.810745,201.607147 196.634872,201.660767 198.872589,202.027039 
	C200.698547,202.523941 202.091217,202.982101 203.544556,204.283417 
	C205.031708,214.864334 205.379410,225.056595 203.294617,235.616638 
z"/>
<path fill="#7D7D7E" opacity="1.000000" stroke="none" 
	d="
M236.000000,168.531342 
	C225.307404,169.034912 214.614807,169.069794 203.453064,169.078766 
	C202.264923,168.472992 201.973312,167.664459 201.727478,166.373383 
	C201.555054,164.218262 201.533005,162.491104 201.580170,160.323944 
	C201.584122,158.993225 201.595459,158.101212 201.543182,156.749313 
	C201.871399,149.690414 200.596954,143.019455 202.700256,136.103287 
	C203.281799,135.539795 203.545822,135.219986 203.833786,135.197037 
	C214.299088,134.362411 224.767349,133.445877 235.607697,135.697281 
	C236.000000,146.687561 236.000000,157.375122 236.000000,168.531342 
z"/>
<path fill="#7E7E7E" opacity="1.000000" stroke="none" 
	d="
M1.000000,203.468658 
	C11.692498,203.018356 22.384996,203.036713 33.546032,203.020142 
	C34.510712,203.442108 35.026093,203.977722 35.069603,204.627090 
	C35.753445,214.833359 36.587803,225.045547 34.304085,235.606171 
	C23.901213,236.000000 13.800483,235.893433 3.705045,236.077332 
	C1.278765,236.121536 0.900873,235.508896 0.935801,233.239365 
	C1.086091,223.473999 1.000000,213.705002 1.000000,203.468658 
z"/>
<path fill="#7D7E7D" opacity="1.000000" stroke="none" 
	d="
M202.659515,69.358765 
	C213.686371,68.968391 224.375656,68.947594 235.532471,68.963394 
	C236.000000,79.687561 236.000000,90.375122 236.000000,101.531342 
	C235.239624,102.668350 234.375687,103.289886 233.378189,103.314346 
	C223.487915,103.556877 213.580841,104.519928 203.315613,102.469994 
	C202.615311,101.780418 202.165283,101.434029 202.115189,100.930420 
	C201.080215,90.523285 200.555573,80.117538 202.659515,69.358765 
z"/>
<path fill="#7E7E7E" opacity="1.000000" stroke="none" 
	d="
M203.468658,236.000000 
	C202.990326,225.640533 202.980652,215.281082 202.978104,203.968582 
	C213.678299,203.032166 224.371384,203.048782 235.532227,203.032715 
	C236.000000,213.098785 235.893433,223.199509 236.077347,233.294952 
	C236.121536,235.721222 235.508911,236.099121 233.239365,236.064209 
	C223.473999,235.913910 213.705002,236.000000 203.468658,236.000000 
z"/>
<path fill="#BDBDBD" opacity="1.000000" stroke="none" 
	d="
M34.319473,34.434246 
	C34.076321,23.341990 34.044281,12.639621 34.006119,1.468626 
	C45.020893,1.000000 56.041790,1.000000 67.531342,1.000000 
	C71.048096,7.091448 69.159119,13.528213 69.227997,20.233484 
	C68.513863,22.856915 66.475433,23.984995 65.210632,25.715364 
	C63.251778,28.395281 62.459587,31.329506 62.340057,34.911835 
	C61.268543,35.946728 60.249180,36.056602 58.799587,35.882324 
	C57.748543,35.645435 57.101822,35.055813 56.017822,35.861023 
	C49.348713,36.869293 43.038700,36.613380 36.305023,36.060936 
	C35.333817,35.682190 34.883194,35.313023 34.319473,34.434246 
z"/>
<path fill="#7D7D7D" opacity="1.000000" stroke="none" 
	d="
M168.531342,1.000000 
	C169.010071,11.692314 169.020157,22.384628 169.125839,33.992222 
	C169.017441,35.128307 168.813431,35.349110 168.211548,35.780334 
	C160.209595,36.977852 152.590134,36.586071 144.575500,36.146122 
	C142.347122,35.439621 141.820984,33.872589 141.412933,32.239090 
	C140.466431,28.449924 138.361664,25.333742 135.579254,22.163208 
	C134.786911,20.639311 134.719513,19.329214 134.559677,17.632492 
	C134.496780,16.401773 134.182495,15.633131 133.907501,14.414282 
	C133.699783,9.882583 132.665741,5.723111 134.730057,1.356211 
	C146.020889,1.000000 157.041794,1.000000 168.531342,1.000000 
z"/>
<path fill="#BDBDBD" opacity="1.000000" stroke="none" 
	d="
M34.468658,236.000000 
	C33.993912,225.308472 33.987820,214.616928 33.998146,203.455307 
	C34.014568,202.985214 34.000198,203.000504 33.993439,203.006546 
	C34.101746,202.871506 34.216805,202.730423 34.601601,202.559280 
	C35.406689,202.599945 35.938408,202.634766 36.711693,202.271622 
	C37.780781,201.978760 38.582661,202.014511 39.696796,202.175140 
	C41.057438,202.540070 42.100639,202.524918 43.467209,202.078583 
	C45.437847,201.672729 47.084515,201.678009 49.084713,201.954132 
	C50.777454,202.330185 52.107254,202.826523 53.863617,202.258636 
	C54.940479,202.113144 55.646423,202.188919 56.607857,202.697693 
	C57.451954,208.399109 56.098076,213.976105 58.841652,219.372879 
	C61.041569,223.700241 63.392063,227.258408 68.669571,228.488464 
	C69.560310,231.033981 69.700035,233.213348 68.256714,235.660065 
	C56.979107,236.000000 45.958210,236.000000 34.468658,236.000000 
z"/>
<path fill="#BDBDBD" opacity="1.000000" stroke="none" 
	d="
M202.509430,102.725273 
	C213.671631,102.017555 224.367157,102.008682 235.531342,101.999908 
	C236.000000,113.020897 236.000000,124.041786 236.000000,135.531342 
	C225.304550,135.996033 214.609116,135.992065 203.192413,135.636597 
	C202.193787,134.434464 202.267380,133.622574 203.059143,132.595886 
	C206.404160,131.071213 209.590759,131.620056 212.710739,131.565491 
	C219.422958,131.448044 219.571701,131.381531 219.526138,124.484161 
	C219.507812,121.707962 220.010178,118.803375 217.851013,116.037178 
	C215.554443,111.012695 212.200546,108.527954 206.835403,109.303741 
	C205.713882,109.465904 204.548096,109.181808 203.133148,108.481712 
	C201.677582,106.777969 201.651810,105.133293 202.509430,102.725273 
z"/>
<path fill="#050605" opacity="1.000000" stroke="none" 
	d="
M115.766418,1.201053 
	C117.714355,1.000000 119.428719,1.000000 121.571533,1.000000 
	C127.058533,2.443593 127.077225,2.486633 124.399269,7.068306 
	C123.753456,8.173201 122.481987,9.367599 123.623947,10.575235 
	C124.715149,11.729182 126.055511,10.702754 127.236450,10.140779 
	C132.253540,7.753277 133.513412,8.490335 134.005676,13.936114 
	C134.260971,16.760027 134.345917,19.530157 132.781570,22.433147 
	C129.935760,24.283175 128.572998,21.612661 126.604530,20.917118 
	C125.205009,20.422611 123.237831,18.290800 123.242561,22.317877 
	C124.070160,25.298800 128.893478,27.651449 123.601189,30.860144 
	C119.453262,31.354481 115.611824,32.208179 111.979370,29.258453 
	C111.142555,27.546211 111.796585,26.417202 112.697906,24.993618 
	C113.681564,23.301931 115.479477,21.637024 113.916916,20.330679 
	C111.995583,18.724380 110.857887,21.252953 109.195656,22.453751 
	C105.164337,24.341415 104.510170,21.681910 103.782639,18.673279 
	C103.701851,17.773832 103.679245,17.258331 103.657288,16.355598 
	C103.663109,15.193786 103.691101,14.419070 103.712036,13.251930 
	C103.837524,11.525900 104.145897,10.262190 105.353104,8.965824 
	C106.646553,8.195478 107.625793,8.347919 108.916901,8.957035 
	C110.953110,9.968917 112.828300,12.836075 114.489006,10.440784 
	C115.828659,8.508547 113.160751,6.837314 111.598785,5.499544 
	C110.998940,4.985793 110.173599,4.735525 109.281860,3.989518 
	C108.917015,3.543959 108.799065,3.343215 108.640106,2.794656 
	C108.726334,1.977526 109.000496,1.630288 109.723526,1.213145 
	C110.444443,1.000000 110.888893,1.000000 111.666672,1.000000 
	C113.090256,1.901584 114.335709,1.439602 115.766418,1.201053 
z"/>
<path fill="#7C7C7C" opacity="1.000000" stroke="none" 
	d="
M1.000000,69.468651 
	C11.688214,68.975601 22.376429,68.951210 33.532127,68.963989 
	C35.608891,70.577705 35.356796,72.540100 35.039940,74.878304 
	C33.255245,78.795670 29.784536,78.728851 26.829208,78.631363 
	C22.075392,78.474548 18.215242,80.194092 14.255898,83.038788 
	C9.560242,85.008682 6.066391,87.581993 5.157409,92.654579 
	C4.814439,94.568542 4.038446,96.180977 1.275234,95.224281 
	C1.000000,86.645767 1.000000,78.291534 1.000000,69.468651 
z"/>
<path fill="#B6B6B6" opacity="1.000000" stroke="none" 
	d="
M1.321202,132.242935 
	C1.000000,122.312439 1.000000,112.624878 1.000000,102.468658 
	C1.387077,101.637032 1.845038,101.467636 2.729400,101.617905 
	C4.817998,104.910118 4.566478,108.836220 7.040738,111.778397 
	C7.801031,112.682457 8.454958,113.555412 9.830750,114.259705 
	C15.850989,122.766083 24.848192,125.817146 33.950520,129.407654 
	C34.380825,129.867508 34.523861,130.079590 34.808479,130.651672 
	C35.219620,132.036575 35.217308,133.072754 34.990669,134.498566 
	C34.794941,135.122528 34.687489,135.362518 34.331322,135.909195 
	C32.763046,137.230133 31.157896,137.286087 29.215206,137.574234 
	C27.714182,137.546158 26.717865,137.163208 25.442694,136.384186 
	C22.784723,133.080963 19.593542,132.488358 15.916534,132.337662 
	C11.141778,132.141968 6.403209,133.524216 1.321202,132.242935 
z"/>
<path fill="#7C7C7C" opacity="1.000000" stroke="none" 
	d="
M169.200760,203.573395 
	C169.060150,214.329468 169.031265,224.696075 169.001190,235.531342 
	C165.638718,236.000000 162.277420,236.000000 158.458069,236.000000 
	C158.657486,234.684326 158.526642,232.921036 157.795303,232.202057 
	C154.047577,228.517715 156.162994,225.306625 157.870209,221.645004 
	C160.580246,215.832504 160.250153,209.771332 158.005173,203.404236 
	C160.588684,200.843491 163.650116,201.819336 166.958771,201.805115 
	C167.619675,201.948914 167.878311,202.030914 168.485840,202.321167 
	C168.993942,202.747574 169.153198,202.965744 169.200760,203.573395 
z"/>
<path fill="#7D7D7D" opacity="1.000000" stroke="none" 
	d="
M34.300854,168.797882 
	C23.327032,169.105530 12.630356,169.099594 1.466840,169.046829 
	C1.000000,161.979050 1.000000,154.958099 1.000000,147.468567 
	C3.093085,145.650299 3.874871,147.703781 5.106338,148.584656 
	C6.846697,149.829575 7.709640,152.059341 10.214128,152.973938 
	C16.626028,158.454254 23.442263,162.213409 31.607801,163.197952 
	C32.581318,163.315338 33.435314,163.931885 34.400848,164.954926 
	C35.076313,166.360046 35.063171,167.426056 34.300854,168.797882 
z"/>
<path fill="#7B7C7B" opacity="1.000000" stroke="none" 
	d="
M67.690521,22.332821 
	C67.916443,15.300071 67.960670,8.618563 68.002441,1.468527 
	C73.688042,1.000000 79.376083,1.000000 85.532059,1.000000 
	C90.535706,4.958342 89.792679,11.440297 84.154305,16.252457 
	C82.254211,17.874121 80.078735,19.163475 77.728493,20.029232 
	C75.509186,20.846756 73.475067,21.582047 72.488350,24.139809 
	C71.660141,26.286674 69.874619,25.639542 68.028214,24.486553 
	C67.502731,23.727768 67.422905,23.218979 67.690521,22.332821 
z"/>
<path fill="#646464" opacity="1.000000" stroke="none" 
	d="
M91.837372,1.287350 
	C95.030594,1.000000 98.061188,1.000000 101.545891,1.000000 
	C104.539673,5.466969 103.630768,10.112523 102.508461,15.127988 
	C101.404716,16.858747 99.835289,17.513674 98.566048,19.031418 
	C92.895615,22.542398 87.337425,25.491083 81.620758,28.136227 
	C78.720940,29.477985 76.080872,31.104836 74.245346,34.297081 
	C73.853973,34.778873 73.678947,34.959484 73.183243,35.347637 
	C71.257317,36.153458 69.808083,35.773582 68.169083,34.579876 
	C67.801041,34.070427 67.709335,33.831863 67.651566,33.214607 
	C71.194977,24.061451 79.072937,20.736233 87.277931,17.289745 
	C94.610954,15.049913 96.693611,10.250974 92.592186,4.879786 
	C91.340477,3.805578 91.530434,2.685434 91.837372,1.287350 
z"/>
<path fill="#717171" opacity="1.000000" stroke="none" 
	d="
M91.571533,1.000000 
	C92.315254,1.810716 92.852600,2.603405 92.107773,3.742550 
	C94.410019,9.425170 93.368233,13.963011 88.250107,17.753433 
	C82.924072,21.182917 76.978889,22.795147 72.512032,27.188927 
	C70.749077,28.923040 70.846924,31.536478 68.472992,32.949688 
	C65.803612,30.423990 66.228790,27.592804 67.809387,24.363850 
	C69.644363,24.004057 72.225792,26.342587 71.463348,21.965540 
	C71.077408,19.749924 74.108330,19.827431 75.687737,19.310932 
	C80.379227,17.776722 84.226776,15.460228 86.576920,10.845253 
	C88.240158,7.579168 88.788063,4.650215 86.064362,1.365330 
	C87.714355,1.000000 89.428719,1.000000 91.571533,1.000000 
z"/>
<path fill="#B4B4B4" opacity="1.000000" stroke="none" 
	d="
M131.761871,23.150620 
	C132.538132,20.221716 133.240112,17.717793 133.099380,15.012871 
	C132.798859,9.236817 132.126114,8.834753 127.266136,11.721035 
	C125.594505,12.713794 123.486397,14.143669 121.893585,12.325026 
	C119.932907,10.086371 122.054695,7.921363 123.326271,6.218947 
	C124.956848,4.035870 126.724579,2.332818 122.212723,1.241169 
	C126.024544,1.000000 130.049088,1.000000 134.536819,1.000000 
	C135.070496,5.365229 135.140976,9.730458 135.242432,14.560334 
	C135.463943,15.543593 135.475693,16.103249 135.776306,16.866714 
	C135.886093,18.442280 135.860947,19.778698 135.835358,21.516216 
	C136.098877,22.997055 136.018051,24.022535 135.028580,25.188339 
	C133.096161,25.743523 132.140488,25.015137 131.761871,23.150620 
z"/>
<path fill="#767776" opacity="1.000000" stroke="none" 
	d="
M68.454102,236.000000 
	C67.987312,233.640472 67.974632,231.280930 67.925095,228.481293 
	C66.946510,226.839035 66.707962,225.497772 67.257774,223.652252 
	C71.693810,220.880936 75.467804,223.085831 79.645401,224.790070 
	C81.544006,226.594879 82.325912,228.039642 80.058403,229.852051 
	C78.452644,231.135513 77.818153,233.100647 77.985733,235.611557 
	C74.969406,236.000000 71.938812,236.000000 68.454102,236.000000 
z"/>
<path fill="#8E8E8E" opacity="1.000000" stroke="none" 
	d="
M1.000000,132.399994 
	C6.673410,130.803131 12.436272,131.198059 18.167337,130.944016 
	C21.735786,130.785858 24.276068,131.766281 25.764042,135.505280 
	C23.149105,139.161850 19.394878,138.358856 15.351552,138.152802 
	C10.638174,136.455063 5.943049,138.489670 1.357021,136.270752 
	C1.000000,134.933334 1.000000,133.866653 1.000000,132.399994 
z"/>
<path fill="#8E8E8E" opacity="1.000000" stroke="none" 
	d="
M100.822220,16.304960 
	C102.854919,11.383187 101.500397,6.597714 101.976120,1.462868 
	C104.041664,1.000000 106.083336,1.000000 108.562500,1.000000 
	C109.115196,1.271620 109.230400,1.543241 109.316696,2.256477 
	C109.287796,2.698093 109.038307,2.467540 109.157715,2.346744 
	C109.242332,2.448693 109.207550,2.671438 109.326912,3.194397 
	C108.667793,5.258211 106.545502,6.145356 106.106659,8.556552 
	C105.616730,9.995277 105.300087,11.153111 104.892677,12.662512 
	C104.379272,13.727604 104.515594,14.519038 104.411407,15.569727 
	C104.440308,16.311829 104.542877,16.771418 104.648209,17.585514 
	C103.801849,18.895687 102.747475,18.985149 101.239624,18.445862 
	C100.575981,17.737772 100.472740,17.208082 100.822220,16.304960 
z"/>
<path fill="#676766" opacity="1.000000" stroke="none" 
	d="
M3.160451,102.314072 
	C2.411233,102.135254 2.008163,102.095131 1.302546,102.027496 
	C1.000000,99.958336 1.000000,97.916664 1.000000,95.437500 
	C2.368187,94.988930 4.189959,94.883629 3.857319,93.151016 
	C2.864284,87.978622 7.891437,86.524658 9.689997,83.111847 
	C10.554821,81.470825 12.042270,82.716705 13.823940,83.230698 
	C14.615988,84.664452 14.099850,85.541664 13.310488,86.134773 
	C8.142557,90.017822 5.897683,95.513519 4.423733,101.876221 
	C3.967347,102.265900 3.736973,102.359329 3.160451,102.314072 
z"/>
<path fill="#646464" opacity="1.000000" stroke="none" 
	d="
M10.388195,153.621414 
	C5.758036,153.660812 5.030888,148.753235 1.343089,147.046051 
	C1.000000,145.611115 1.000000,144.222214 1.000000,142.416656 
	C3.489466,140.455292 4.446982,143.103958 6.402279,144.086121 
	C8.742945,146.980896 10.374563,149.824265 10.388195,153.621414 
z"/>
<path fill="#535354" opacity="1.000000" stroke="none" 
	d="
M6.236873,144.726990 
	C3.824224,145.092346 3.705065,142.183273 1.342907,142.025742 
	C1.000000,140.285645 1.000000,138.571289 1.000000,136.428467 
	C5.452484,136.096527 9.920353,135.452423 14.646427,136.570709 
	C14.372263,137.789886 13.392592,138.254303 12.471106,138.152985 
	C7.633271,137.621109 6.408640,140.391129 6.236873,144.726990 
z"/>
<path fill="#969696" opacity="1.000000" stroke="none" 
	d="
M115.600006,1.000000 
	C114.781982,2.343040 113.335030,2.477061 111.867950,1.403718 
	C113.066673,1.000000 114.133339,1.000000 115.600006,1.000000 
z"/>
<path fill="#969696" opacity="1.000000" stroke="none" 
	d="
M109.720108,2.614462 
	C109.222061,2.418089 109.156326,2.138085 109.045296,1.429041 
	C109.000000,1.000000 109.500000,1.000000 109.750000,1.000000 
	C110.516678,1.463894 110.568481,1.974072 109.720108,2.614462 
z"/>
<path fill="#FBFBFB" opacity="1.000000" stroke="none" 
	d="
M133.339691,133.348328 
	C126.118317,132.944626 126.118309,132.944626 126.116173,139.691864 
	C126.116119,139.857956 126.119804,140.024139 126.115082,140.190109 
	C125.993057,144.480011 127.516800,150.313217 125.318939,152.658279 
	C122.733337,155.417068 116.840195,153.160583 112.413414,153.587219 
	C109.382866,153.879272 108.819641,152.510147 108.945595,149.858276 
	C109.134491,145.881119 108.662109,141.852707 109.084572,137.911865 
	C109.542953,133.635910 108.022804,132.200531 103.525833,133.070541 
	C99.919533,135.372040 96.308846,134.209778 92.397438,134.433258 
	C87.445061,134.471588 86.406403,131.667923 86.517471,127.430351 
	C86.519554,124.491882 86.540337,122.042183 86.511848,119.593819 
	C86.469139,115.923729 87.883110,113.610046 92.336044,113.525116 
	C96.135605,113.265892 99.470741,113.384239 102.799942,113.393791 
	C105.915207,113.402725 107.360313,112.040825 107.376091,108.896721 
	C107.393639,105.399101 107.363495,101.900169 107.474434,98.401535 
	C107.595566,94.581085 109.380768,92.581207 113.303772,92.470200 
	C128.697372,92.034607 127.565041,92.533249 127.601761,105.490723 
	C127.623886,113.299706 127.701469,113.358566 135.291199,113.405960 
	C137.622284,113.420517 139.956406,113.285301 142.760162,113.545624 
	C147.091202,113.582771 148.425369,115.908920 148.562485,119.350159 
	C148.602142,120.345688 148.627899,121.341034 148.639786,122.337128 
	C148.784164,134.427719 148.572723,134.640564 136.099945,134.375061 
	C134.946503,134.194550 134.326035,133.969894 133.339691,133.348328 
z"/>
<path fill="#7C7C7C" opacity="1.000000" stroke="none" 
	d="
M145.308548,170.242401 
	C140.451447,161.926010 137.317215,153.238907 135.619446,143.853729 
	C135.418106,142.068909 134.906784,140.570770 135.042023,138.467041 
	C135.065384,137.327286 135.230499,136.709305 135.894348,135.784195 
	C141.061020,133.645187 146.093216,134.541626 151.013641,134.447418 
	C156.779114,134.337036 162.615585,133.755127 168.726501,135.560303 
	C169.817902,136.608032 170.294495,137.529510 170.324768,138.514053 
	C170.628113,148.380768 171.323807,158.255295 169.702927,168.530121 
	C167.920609,170.503601 165.906616,170.569458 163.950974,170.553375 
	C157.894455,170.503571 151.830353,170.972656 145.308548,170.242401 
z"/>
<path fill="#BABABA" opacity="1.000000" stroke="none" 
	d="
M144.902039,170.511551 
	C148.993011,167.909302 153.463104,169.481384 157.775894,169.150467 
	C161.190277,168.888489 164.640411,169.092178 168.543518,169.062408 
	C169.234360,169.273849 169.456345,169.511932 169.883636,170.192871 
	C170.678360,181.184311 171.501862,191.736465 169.306946,202.628220 
	C165.642746,203.029068 162.274460,203.048462 158.447983,203.036865 
	C156.628189,200.190704 155.391159,197.305725 153.865280,194.582596 
	C152.662781,192.436600 150.878922,190.669983 153.698883,188.282547 
	C154.851990,187.306305 154.609177,184.941299 153.326096,184.262650 
	C147.853653,181.368240 147.688141,175.353683 144.902039,170.511551 
z"/>
<path fill="#4B4B4B" opacity="1.000000" stroke="none" 
	d="
M102.279510,135.562073 
	C102.386772,145.075150 99.200455,153.604797 96.300850,162.192856 
	C95.561264,164.383392 94.500458,166.465454 93.299942,168.799408 
	C90.341660,171.060806 87.369911,170.593735 83.990204,169.855438 
	C81.924194,168.501770 81.844986,166.773026 82.600716,165.239471 
	C87.273293,155.757889 90.615143,145.745544 94.799599,135.667847 
	C97.384209,134.397034 99.654045,134.359375 102.279510,135.562073 
z"/>
<path fill="#707070" opacity="1.000000" stroke="none" 
	d="
M82.736382,169.654358 
	C86.033859,169.005646 89.068260,169.019730 92.557655,169.017639 
	C90.872398,174.367493 90.180122,180.525330 84.679893,184.060745 
	C84.215645,184.359131 83.710526,185.399918 83.890976,185.775864 
	C87.247963,192.769806 80.906197,196.849792 78.882111,202.577393 
	C78.156662,203.499481 77.458992,203.754349 76.279648,203.467331 
	C74.012611,200.804932 73.986443,197.732834 73.449196,194.813339 
	C73.328598,194.157959 73.182350,193.074112 73.578712,192.898483 
	C80.236023,189.948380 75.158699,183.058548 78.381104,178.591797 
	C79.992470,176.358185 82.535713,173.742111 82.736382,169.654358 
z"/>
<path fill="#535354" opacity="1.000000" stroke="none" 
	d="
M75.611084,202.669189 
	C76.671005,202.945847 77.361710,202.944839 78.396439,202.924286 
	C76.461639,207.522339 76.547371,212.352966 77.484489,217.659393 
	C76.654724,219.067230 75.486229,219.010468 73.979034,218.921753 
	C73.411942,218.813171 73.188339,218.753448 72.640610,218.570557 
	C70.884529,217.695267 69.283218,217.301300 67.701210,216.101791 
	C66.995201,214.929703 66.947311,213.974960 67.190331,212.639862 
	C67.337189,211.695831 68.377457,211.177643 67.229126,210.163727 
	C66.457588,207.557709 66.437218,205.347778 67.881485,202.904755 
	C70.507072,201.296082 72.859093,201.264328 75.611084,202.669189 
z"/>
<path fill="#626262" opacity="1.000000" stroke="none" 
	d="
M67.847946,216.220093 
	C69.855423,215.889053 71.297340,216.483337 72.802841,217.728348 
	C74.258575,218.008942 75.519630,218.021027 77.151077,218.047455 
	C78.286743,220.141876 79.052017,222.221939 79.893730,224.658325 
	C76.262100,224.339447 72.554039,223.664215 68.473877,222.975067 
	C67.318764,222.427063 67.019714,221.613205 66.771248,220.305588 
	C66.683289,218.674545 66.821320,217.521667 67.847946,216.220093 
z"/>
<path fill="#747475" opacity="1.000000" stroke="none" 
	d="
M102.651253,135.498016 
	C100.370560,135.905151 98.122581,135.966339 95.444519,136.044281 
	C94.304741,136.601379 93.519585,136.822006 92.257164,136.431274 
	C91.303429,135.511032 91.221832,134.707565 91.773117,133.510132 
	C95.408394,133.100601 98.788216,133.028046 102.625298,133.033844 
	C102.949692,133.792160 102.816833,134.472122 102.651253,135.498016 
z"/>
<path fill="#969696" opacity="1.000000" stroke="none" 
	d="
M136.089645,135.838135 
	C136.065750,136.585648 136.052856,136.987686 136.030090,137.691254 
	C135.638184,138.348663 135.184525,138.488464 134.365067,138.222076 
	C133.793304,136.574829 133.525192,135.146332 133.095718,133.389160 
	C133.384949,133.020325 133.835541,132.980179 134.621185,133.012115 
	C135.695663,133.716934 136.126984,134.496063 136.089645,135.838135 
z"/>
<path fill="#9C9D9C" opacity="1.000000" stroke="none" 
	d="
M134.034912,138.390289 
	C134.496536,137.997650 134.931641,137.991974 135.693481,137.989532 
	C136.006821,139.540436 135.993439,141.088089 135.959335,143.100494 
	C134.231888,142.397903 134.367355,140.487930 134.034912,138.390289 
z"/>
<path fill="#7D7E7D" opacity="1.000000" stroke="none" 
	d="
M202.996765,34.996677 
	C202.988159,45.675526 202.991699,56.365803 202.996094,67.524261 
	C202.236862,68.664848 201.372253,69.287827 200.372223,69.315544 
	C190.123505,69.599754 179.863495,70.425591 169.221619,68.568024 
	C168.017776,67.366409 167.606079,66.260696 167.560165,65.082771 
	C167.209793,56.091988 167.156845,47.099693 167.586670,38.109470 
	C167.626877,37.268681 167.978394,36.496628 168.716583,35.376640 
	C169.020905,34.979458 168.996887,35.005829 168.983765,35.017899 
	C170.274979,34.093529 171.747742,34.654041 173.543060,34.730728 
	C182.996124,34.928749 192.052963,34.956158 201.578918,34.931309 
	C202.228928,34.795063 202.409866,34.711079 202.810120,34.830647 
	C203.029419,35.034203 203.008896,35.008102 202.996765,34.996677 
z"/>
<path fill="#C6C9C8" opacity="1.000000" stroke="none" 
	d="
M173.689301,34.642822 
	C172.559937,34.936768 171.180618,34.972195 169.385956,35.018795 
	C168.966019,34.858379 168.961380,34.686787 169.017914,34.265060 
	C170.532516,34.138046 171.985916,34.261173 173.689301,34.642822 
z"/>
<path fill="#C6C9C8" opacity="1.000000" stroke="none" 
	d="
M203.031387,34.781158 
	C203.029419,35.034203 202.535828,34.973450 202.291916,34.926247 
	C202.135452,34.601307 202.299225,34.380074 202.728271,34.125435 
	C202.955917,34.199718 202.994644,34.363918 203.031387,34.781158 
z"/>
<path fill="#C6C9C8" opacity="1.000000" stroke="none" 
	d="
M34.053764,34.285786 
	C34.387566,34.133400 34.614162,34.295837 34.885563,34.720558 
	C34.823498,35.060867 34.664021,35.212288 34.241478,35.164688 
	C33.978409,34.965668 33.986725,35.007626 34.007500,35.014515 
	C34.028278,35.021404 33.999168,34.527214 34.053764,34.285786 
z"/>
<path fill="#7D7E7D" opacity="1.000000" stroke="none" 
	d="
M34.004799,35.436939 
	C34.146706,34.971809 34.315002,34.977955 34.733139,34.946774 
	C42.025562,34.934753 49.068146,34.960060 56.579826,34.933243 
	C57.194019,34.795494 57.339115,34.709869 57.710674,34.736397 
	C59.013672,34.881538 60.090202,34.914528 61.569763,34.912716 
	C62.388203,34.600296 62.843475,34.452469 63.692429,34.575722 
	C65.639313,38.575745 64.793335,43.388779 68.695694,46.819557 
	C68.954552,47.445587 69.041138,47.709423 69.211121,48.393005 
	C69.367889,55.165543 70.481735,61.560566 68.195770,68.181351 
	C62.223743,70.695671 56.342655,69.536888 50.584129,69.558502 
	C45.329453,69.578239 39.938599,70.672165 34.419380,68.229736 
	C34.034920,57.248470 34.033054,46.578342 34.004799,35.436939 
z"/>
<path fill="#B7B7B7" opacity="1.000000" stroke="none" 
	d="
M34.021255,68.189026 
	C45.037415,67.933434 56.038044,67.948257 67.505051,67.941742 
	C68.189819,68.137161 68.408218,68.353920 68.832863,68.983063 
	C69.918526,75.711777 69.705391,82.035271 69.019135,88.775894 
	C65.358444,92.470238 63.458626,88.778793 60.793663,87.044083 
	C58.986015,82.511963 54.894817,81.961250 51.444889,80.713791 
	C47.854141,79.415428 44.005394,79.230240 40.168056,79.310204 
	C38.195229,79.351311 36.167343,79.402794 34.197433,77.810562 
	C33.848969,77.277260 33.757744,77.034698 33.792442,76.424385 
	C33.942921,73.998688 33.967484,71.940750 33.995827,69.441986 
	C34.001644,68.820602 34.003681,68.640030 34.021255,68.189026 
z"/>
<path fill="#BABAB9" opacity="1.000000" stroke="none" 
	d="
M168.666855,68.333588 
	C180.021042,67.994560 191.040649,67.992371 202.528625,67.991318 
	C202.996979,67.992447 203.001465,68.490906 202.999283,68.740051 
	C202.999634,79.687675 203.002167,90.386162 202.990387,101.555534 
	C202.976105,102.026428 202.999756,101.991165 203.018066,101.980606 
	C202.413528,102.536598 201.682251,102.772041 200.479797,102.559799 
	C197.884277,100.409134 199.469757,96.374084 195.844757,94.710464 
	C192.087006,89.479637 186.997025,90.040283 181.996445,90.662148 
	C179.090561,91.023514 177.859329,93.166733 177.513657,95.910088 
	C177.265625,97.878586 177.529953,99.932190 176.290848,102.100838 
	C174.114883,103.528923 172.102936,103.466515 169.632126,102.752586 
	C168.983139,102.356972 168.752548,102.151596 168.291550,101.541489 
	C166.825455,90.919342 167.467667,80.678505 167.800552,69.985077 
	C168.059296,69.241547 168.195786,68.955986 168.666855,68.333588 
z"/>
<path fill="#7D7D7D" opacity="1.000000" stroke="none" 
	d="
M57.408455,202.519760 
	C56.211891,203.118561 55.442783,203.092834 54.290878,203.111755 
	C52.905724,203.658478 51.838913,203.452774 50.428299,203.276428 
	C47.991161,203.072968 45.915432,203.033493 43.396667,203.037643 
	C42.275280,203.561829 41.506187,203.482986 40.399345,203.269501 
	C38.961296,203.066681 37.866795,203.034256 36.364185,203.052216 
	C35.803596,203.193878 35.651119,203.285187 35.271072,203.237640 
	C34.868805,203.067337 34.694111,203.035889 34.253052,203.008514 
	C34.006958,192.325012 34.027229,181.637451 34.026939,170.482513 
	C35.303963,168.816040 36.912811,168.458252 38.592991,168.457916 
	C46.686737,168.456238 54.785107,168.050964 63.287407,168.808197 
	C65.473549,169.565948 66.037613,170.955948 65.247887,172.487534 
	C63.266659,176.329895 63.414272,180.970230 60.652328,184.491425 
	C56.507175,189.776077 56.393620,195.708694 57.408455,202.519760 
z"/>
<path fill="#B7B7B7" opacity="1.000000" stroke="none" 
	d="
M65.367325,170.270493 
	C54.986359,170.031357 44.964336,170.021988 34.474342,170.013885 
	C34.006378,170.015152 33.999561,169.562027 34.011635,169.336731 
	C34.015621,168.025345 34.007530,166.939224 33.982712,165.448029 
	C35.346249,163.475906 37.250549,163.539719 39.044987,163.587402 
	C48.163795,163.829788 56.914303,162.505356 64.955482,157.877808 
	C65.677643,157.462204 66.523315,157.355530 67.770073,157.631607 
	C70.140884,160.369019 69.121185,163.382172 69.384918,166.633972 
	C69.325249,167.354767 69.294075,167.642639 69.168121,168.354370 
	C68.958397,169.043427 68.843437,169.308655 68.458969,169.912384 
	C67.410072,170.745667 66.587807,170.816849 65.367325,170.270493 
z"/>
<path fill="#7D7D7D" opacity="1.000000" stroke="none" 
	d="
M169.001373,202.998444 
	C169.008545,192.308472 169.006073,181.607254 168.996735,170.435196 
	C169.911789,169.176041 170.984070,168.752121 172.624451,168.623306 
	C175.096771,168.470215 177.133377,168.523575 179.611664,168.551758 
	C181.248123,168.497757 182.442642,168.424774 184.096481,168.542786 
	C190.463058,168.678101 196.434647,167.487732 202.637878,169.662231 
	C203.009232,180.653137 203.000687,191.364456 202.988678,202.545654 
	C202.985229,203.015549 203.008392,202.993698 203.018524,202.981476 
	C202.054092,203.808807 200.897308,203.394943 199.426910,203.257416 
	C196.975677,203.052307 194.904465,203.027420 192.391296,203.046844 
	C191.261642,203.557892 190.489578,203.484085 189.382217,203.256897 
	C188.271149,203.052429 187.499817,203.029892 186.344482,203.051392 
	C185.807053,203.189117 185.653671,203.282806 185.270004,203.236252 
	C183.297211,203.063370 181.554688,203.030716 179.378510,203.043991 
	C177.619095,203.781540 176.202728,203.402313 174.438766,203.265335 
	C172.961288,203.065781 171.866577,203.039627 170.363571,203.062332 
	C169.774704,203.199127 169.594131,203.287033 169.191345,203.171509 
	C168.969131,202.968079 168.991714,202.987198 169.001373,202.998444 
z"/>
<path fill="#BDBDBD" opacity="1.000000" stroke="none" 
	d="
M203.009003,169.719589 
	C196.989746,169.942535 190.961685,169.943253 184.467682,169.897400 
	C183.144974,169.018524 182.578644,168.008926 182.336395,166.851562 
	C181.761963,164.106949 180.668610,161.030106 183.189331,158.929123 
	C185.432419,157.059570 187.910416,158.795349 190.138062,159.826172 
	C191.799347,160.594925 193.560684,161.834106 195.304581,161.147293 
	C199.700012,159.416245 201.285278,161.839447 202.619598,165.678970 
	C202.910172,166.759613 202.951981,167.522705 202.988861,168.669312 
	C202.983917,169.052841 203.000214,169.497360 203.009003,169.719589 
z"/>
<path fill="#C6C9C8" opacity="1.000000" stroke="none" 
	d="
M174.285858,203.343781 
	C175.415054,203.066528 176.774078,203.041107 178.539001,203.052811 
	C177.605423,204.457962 176.071701,204.124313 174.285858,203.343781 
z"/>
<path fill="#C6C9C8" opacity="1.000000" stroke="none" 
	d="
M199.275635,203.333405 
	C200.108124,203.046005 201.169342,203.014816 202.629608,202.976425 
	C203.030411,203.140579 203.032196,203.311905 202.975281,203.733475 
	C201.779160,203.852341 200.641769,203.720978 199.275635,203.333405 
z"/>
<path fill="#C6C9C8" opacity="1.000000" stroke="none" 
	d="
M189.221710,203.309814 
	C189.770187,203.052322 190.497894,203.029694 191.587463,203.049103 
	C191.244568,204.055359 190.384109,204.144699 189.221710,203.309814 
z"/>
<path fill="#C6C9C8" opacity="1.000000" stroke="none" 
	d="
M185.122559,203.244873 
	C185.039734,203.096024 185.500275,203.042709 185.730347,203.069061 
	C185.708755,203.194839 185.457077,203.294266 185.122559,203.244873 
z"/>
<path fill="#C6C9C8" opacity="1.000000" stroke="none" 
	d="
M168.969620,203.220337 
	C168.969131,202.968079 169.465469,203.018631 169.710388,203.064911 
	C169.869141,203.390182 169.706406,203.613281 169.278076,203.871674 
	C169.049393,203.799423 169.009750,203.636002 168.969620,203.220337 
z"/>
<path fill="#BDBDBD" opacity="1.000000" stroke="none" 
	d="
M202.915649,165.569580 
	C200.330276,162.720551 197.111618,162.208130 193.082596,162.655396 
	C191.169586,162.867752 189.011505,160.857971 186.962097,159.859680 
	C183.810837,158.324692 182.680984,159.634399 183.023254,162.759155 
	C183.253571,164.861938 183.666061,166.944748 183.999390,169.443665 
	C182.933273,169.879547 181.864822,169.908264 180.397873,169.887909 
	C178.182175,167.927780 178.797134,165.494873 178.571808,163.238190 
	C178.379288,161.309875 178.632477,158.522491 176.099106,158.566727 
	C173.598328,158.610428 174.637253,161.379105 174.436371,163.006409 
	C174.176392,165.112549 174.685898,167.325516 173.241684,169.562119 
	C171.931671,169.881729 170.862778,169.929779 169.391861,169.971100 
	C168.989853,169.964340 169.003876,169.499863 169.008118,169.267807 
	C169.011948,158.329239 169.011551,147.622711 169.317719,136.166229 
	C170.926285,134.771378 172.242203,134.816895 173.898193,135.551331 
	C175.800400,138.024643 175.282547,140.548752 175.099594,143.007858 
	C174.638351,149.207825 175.688889,150.702698 182.271088,152.447357 
	C186.218231,151.613937 189.862167,151.155945 193.454865,151.724991 
	C197.689789,152.395721 198.591843,150.354858 198.581482,146.739853 
	C198.571640,143.309875 198.022812,139.805878 199.579742,136.119049 
	C200.615814,135.276825 201.443649,135.222580 202.669006,135.782257 
	C203.030426,136.029587 203.001083,136.002029 202.987091,135.987045 
	C202.969345,142.672562 202.965576,149.373062 202.917160,156.540604 
	C202.242279,157.740677 201.935806,158.528122 202.664093,159.723938 
	C202.899033,161.709213 202.931000,163.425919 202.915649,165.569580 
z"/>
<path fill="#BDBDBD" opacity="1.000000" stroke="none" 
	d="
M202.913788,159.620834 
	C200.799118,159.440140 200.220490,158.562973 202.556458,157.063385 
	C202.901825,157.754807 202.931168,158.501984 202.913788,159.620834 
z"/>
<path fill="#B4B4B4" opacity="1.000000" stroke="none" 
	d="
M64.370110,35.377033 
	C63.575153,35.098164 63.116627,35.042912 62.315445,34.932789 
	C60.611847,29.770433 62.283436,25.676416 67.534546,22.032394 
	C67.931000,22.438318 67.989784,22.895058 68.113113,23.691662 
	C68.123650,26.730568 68.069649,29.429607 68.074677,32.577370 
	C68.133705,33.026093 68.025078,33.512630 68.009186,33.761379 
	C68.089340,34.260307 68.185379,34.510483 68.041046,35.084381 
	C66.803078,36.015148 65.769638,36.046227 64.370110,35.377033 
z"/>
<path fill="#C6C9C8" opacity="1.000000" stroke="none" 
	d="
M57.852737,34.710991 
	C57.937138,34.848549 57.494907,34.923737 57.271915,34.902428 
	C57.198513,34.497269 57.438316,34.394707 57.852737,34.710991 
z"/>
<path fill="#BCBCBC" opacity="1.000000" stroke="none" 
	d="
M169.002869,67.528397 
	C169.001419,67.996750 168.999451,68.493851 169.001007,68.742401 
	C166.624313,71.039711 163.717499,70.597374 160.959167,70.572746 
	C156.185623,70.530128 151.393997,70.978340 146.205917,70.039581 
	C145.227173,69.630165 144.793289,69.246834 144.349426,68.334793 
	C143.997482,64.436592 146.522034,62.175644 148.086594,59.492397 
	C151.380295,53.843605 151.412094,48.032978 148.221268,44.016922 
	C146.097137,41.343426 142.795670,40.913219 139.764359,39.149673 
	C138.935944,37.807217 138.915787,36.725292 139.503754,35.246597 
	C140.452911,34.280617 141.285065,34.147461 142.569107,34.526531 
	C151.329132,34.796616 159.705734,34.856190 168.551620,34.947609 
	C169.015381,45.672985 169.009842,56.366516 169.002869,67.528397 
z"/>
<path fill="#717171" opacity="1.000000" stroke="none" 
	d="
M142.957108,34.407753 
	C142.219254,34.815735 141.485992,34.894428 140.383820,34.996490 
	C139.052658,35.804127 137.974411,36.080956 136.369934,35.574715 
	C135.312988,34.778122 135.019226,33.979053 134.760986,32.717049 
	C134.640594,30.130411 134.424698,27.953510 134.972412,25.401581 
	C135.194061,24.148874 135.311295,23.288134 135.631714,22.172356 
	C141.016022,24.326923 141.839874,29.289995 142.957108,34.407753 
z"/>
<path fill="#8B8B8B" opacity="1.000000" stroke="none" 
	d="
M135.932739,16.817118 
	C135.656723,16.602711 135.402206,16.099556 135.210571,15.310692 
	C135.500366,15.526112 135.727310,16.027241 135.932739,16.817118 
z"/>
<path fill="#ACACAC" opacity="1.000000" stroke="none" 
	d="
M67.662872,219.788086 
	C67.926941,220.794189 67.975861,221.517532 68.063278,222.601013 
	C68.062737,224.373047 68.023697,225.784973 67.936455,227.619034 
	C64.913559,229.269409 63.135326,228.488831 60.963902,225.762299 
	C56.007759,219.539154 55.613949,212.376328 55.264942,205.075165 
	C55.243458,204.625732 56.094585,204.134583 56.760353,203.403564 
	C56.980995,203.144302 56.981922,202.987106 56.976128,202.908722 
	C57.634808,202.351746 58.349548,201.982239 59.559540,201.772980 
	C61.022903,201.672089 62.065319,201.776733 63.400398,202.339447 
	C63.601307,208.483200 64.997627,214.109573 67.662872,219.788086 
z"/>
<path fill="#C6C9C8" opacity="1.000000" stroke="none" 
	d="
M50.273460,203.349792 
	C51.093285,203.092041 52.119678,203.071655 53.527077,203.103836 
	C52.888813,204.282242 51.711884,204.153244 50.273460,203.349792 
z"/>
<path fill="#C6C9C8" opacity="1.000000" stroke="none" 
	d="
M40.236584,203.330856 
	C40.780823,203.069885 41.505844,203.040665 42.592247,203.046356 
	C42.261711,204.050568 41.403847,204.145432 40.236584,203.330856 
z"/>
<path fill="#C6C9C8" opacity="1.000000" stroke="none" 
	d="
M35.126171,203.244965 
	C35.043503,203.098801 35.500244,203.054764 35.728161,203.078674 
	C35.707001,203.198776 35.457920,203.294952 35.126171,203.244965 
z"/>
<path fill="#FDFDFD" opacity="1.000000" stroke="none" 
	d="
M200.218597,135.780273 
	C199.949951,140.630981 199.878998,145.238388 199.911911,149.845016 
	C199.932343,152.706711 199.105072,154.153931 195.804382,153.518524 
	C191.583328,152.705933 187.301056,152.940842 182.680267,153.874100 
	C181.207336,153.224228 180.865601,152.144760 180.659958,150.547089 
	C180.590530,149.271225 180.515839,148.423920 180.581085,147.158585 
	C180.506195,143.765518 180.555954,140.787231 180.542816,137.433228 
	C180.842545,134.065536 178.707245,134.425705 176.478760,134.401230 
	C173.873825,134.501862 171.652954,134.478165 168.983704,134.442322 
	C164.916641,134.242035 160.523010,135.583267 159.591568,129.500748 
	C159.417618,126.571533 159.344589,124.118370 159.422943,121.662598 
	C159.632202,115.102043 160.817078,113.916580 168.067322,113.484741 
	C170.650070,113.454880 172.786224,113.503006 174.920944,113.468193 
	C180.069397,113.384209 180.384827,113.043671 180.477280,107.754219 
	C180.508850,105.947578 180.401810,104.139305 180.527954,101.879578 
	C180.345734,92.409950 184.686661,90.042725 195.514587,93.715164 
	C201.448761,94.034058 199.556549,98.216530 199.965897,101.571899 
	C201.428497,103.564438 201.411011,105.508766 201.423187,107.828018 
	C201.938309,110.019234 199.999161,112.702965 203.686356,113.509659 
	C207.370056,113.563690 210.672089,113.420708 214.400696,113.624725 
	C215.719788,113.703766 216.551086,113.936142 217.641052,114.719025 
	C219.681534,115.177818 220.811584,115.977379 220.822037,117.805481 
	C220.846664,122.110115 220.852203,126.415276 220.810562,130.719696 
	C220.786530,133.205322 218.909012,132.990173 217.257675,133.000214 
	C212.786713,133.027374 208.315613,133.031784 203.371643,133.085938 
	C202.035751,133.879242 201.271729,134.731979 200.218597,135.780273 
z"/>
<path fill="#A5A6A6" opacity="1.000000" stroke="none" 
	d="
M217.958527,114.626572 
	C217.238892,115.025139 216.485016,115.065147 215.359024,115.038986 
	C211.904022,111.577431 207.514542,112.827621 203.417526,111.627487 
	C202.672333,111.071007 202.415894,110.619629 202.294098,109.684990 
	C202.372910,109.026779 202.457626,108.771362 202.828400,108.231171 
	C204.947052,107.966942 206.802353,108.181717 208.607910,107.970810 
	C213.590866,107.388748 216.508652,109.669807 217.958527,114.626572 
z"/>
<path fill="#797979" opacity="1.000000" stroke="none" 
	d="
M203.072083,107.522720 
	C203.071228,108.137146 203.027985,108.327896 202.916077,108.803864 
	C202.201767,109.622536 201.479736,109.727615 200.382248,109.246719 
	C199.987198,106.968819 199.903473,104.917397 199.910248,102.433334 
	C200.759674,102.004288 201.518631,102.007858 202.656982,101.990738 
	C203.034149,103.679718 203.031921,105.389381 203.072083,107.522720 
z"/>
<path fill="#7E7E7E" opacity="1.000000" stroke="none" 
	d="
M200.358612,136.014679 
	C199.546112,134.206985 199.694901,132.805084 202.508835,133.079330 
	C202.935715,133.851822 202.972672,134.576996 203.020020,135.665878 
	C202.267014,136.021530 201.503601,136.013474 200.358612,136.014679 
z"/>
<path fill="#727272" opacity="1.000000" stroke="none" 
	d="
M111.571655,27.686859 
	C115.139153,31.215595 119.179031,29.973408 123.464508,29.857294 
	C124.320465,30.275423 124.503067,30.806929 124.285797,31.818459 
	C121.083748,34.217804 117.665688,33.296005 114.405472,33.436111 
	C110.930779,33.585438 107.395538,33.171108 103.789200,35.183754 
	C103.084991,35.340881 102.793274,35.356522 102.105919,35.180016 
	C100.239655,32.882099 100.600670,30.514784 100.824280,27.752495 
	C101.015327,27.057320 101.120178,26.789051 101.474609,26.171513 
	C105.253067,24.246197 108.116577,26.734514 111.571655,27.686859 
z"/>
<path fill="#8B8B8B" opacity="1.000000" stroke="none" 
	d="
M124.278595,32.134182 
	C124.017609,31.373671 123.996223,30.930027 123.941582,30.154430 
	C128.009995,26.505579 122.063377,25.887653 122.207184,23.299402 
	C126.815193,21.941622 129.924820,24.577208 132.797455,27.563026 
	C133.816483,28.622204 134.499451,30.012331 135.503967,31.578281 
	C135.816544,32.627789 135.903748,33.387730 136.000824,34.530533 
	C136.761215,35.848545 137.077744,36.890156 136.613342,38.454098 
	C134.868484,40.151093 133.249237,39.480526 132.719040,38.063087 
	C131.249573,34.134586 127.807747,33.491367 124.278595,32.134182 
z"/>
<path fill="#9C9D9C" opacity="1.000000" stroke="none" 
	d="
M135.789124,31.468243 
	C134.667908,31.924845 133.559296,31.519495 133.253372,30.644642 
	C131.522278,25.694384 126.711784,25.052612 122.536453,22.991438 
	C121.232376,21.546509 120.236626,19.993309 121.890167,18.550468 
	C123.445160,17.193607 125.069557,18.218126 126.447968,19.090864 
	C128.117935,20.148195 129.646667,21.428585 131.556519,22.688362 
	C132.375763,23.874577 133.098755,24.726681 134.728638,24.971846 
	C136.657593,26.860651 135.646729,29.041933 135.789124,31.468243 
z"/>
<path fill="#797979" opacity="1.000000" stroke="none" 
	d="
M112.051331,27.738617 
	C108.514282,28.801258 105.764900,26.853855 102.385559,26.008524 
	C99.802551,24.499529 99.698341,22.273064 100.007164,19.532707 
	C100.260910,18.877228 100.401871,18.631481 100.891708,18.143078 
	C102.150101,17.919540 103.059639,17.938662 104.310074,17.948902 
	C105.592369,19.333271 104.238831,22.523914 108.046127,21.839926 
	C110.910988,20.967886 112.413757,22.477262 113.935089,24.660892 
	C113.474632,25.853575 112.857323,26.671925 112.051331,27.738617 
z"/>
<path fill="#9C9D9C" opacity="1.000000" stroke="none" 
	d="
M108.786362,4.241122 
	C109.024353,3.701616 109.051468,3.405887 109.177856,2.668053 
	C113.446083,3.107839 114.827232,6.700298 116.418350,9.900764 
	C117.558365,12.193851 116.210434,13.241301 113.858170,13.058646 
	C111.997238,12.914145 110.511040,11.967461 109.033623,10.381900 
	C109.055580,8.183404 109.102959,6.318922 108.786362,4.241122 
z"/>
<path fill="#868786" opacity="1.000000" stroke="none" 
	d="
M114.402222,24.817905 
	C112.420311,24.038357 110.748695,23.041491 108.707809,21.911442 
	C108.725433,21.267662 109.020920,20.632896 109.515617,20.268761 
	C111.303116,18.953024 113.397636,16.786474 115.466499,18.501204 
	C117.586754,20.258526 115.809151,22.636198 114.402222,24.817905 
z"/>
<path fill="#969696" opacity="1.000000" stroke="none" 
	d="
M108.645798,4.003456 
	C109.530029,5.868271 111.297173,7.650928 109.137672,9.875231 
	C108.111198,9.603268 107.351753,9.151361 106.262833,8.768448 
	C104.731483,6.255520 105.254410,4.517087 108.645798,4.003456 
z"/>
<path fill="#797979" opacity="1.000000" stroke="none" 
	d="
M104.499603,15.524256 
	C103.843147,15.010497 103.850380,14.179431 104.596329,13.186893 
	C104.755096,13.741478 104.708282,14.468875 104.499603,15.524256 
z"/>
<path fill="#676766" opacity="1.000000" stroke="none" 
	d="
M33.574852,76.201782 
	C33.918354,76.056625 34.008278,76.505493 34.024239,76.733826 
	C34.357727,77.415993 34.530109,77.919395 34.437782,78.858383 
	C32.142258,81.925850 28.812784,80.694679 26.083496,81.484589 
	C22.424982,82.543411 18.668425,83.922523 14.360563,83.265350 
	C14.036359,83.038528 14.000286,83.001060 13.981527,82.982124 
	C16.270237,78.761322 20.397245,77.282730 24.601097,77.289833 
	C27.588434,77.294891 30.394012,77.049591 33.574852,76.201782 
z"/>
<path fill="#FEFEFE" opacity="1.000000" stroke="none" 
	d="
M68.219604,157.853882 
	C57.817551,164.660919 46.521053,165.568253 34.435356,165.019470 
	C30.429247,164.257919 26.858391,163.599533 23.363836,162.657944 
	C18.240414,161.277481 14.260398,158.096100 10.517286,154.057495 
	C8.973983,151.128403 7.745832,148.298370 6.257048,145.234467 
	C5.100958,137.256271 5.100958,137.256271 14.486401,136.903351 
	C18.404276,137.433228 21.742064,136.535889 25.512077,135.883545 
	C26.634897,136.138077 27.353649,136.462051 28.307455,136.979156 
	C30.129215,137.354568 29.984016,138.843430 30.656675,140.131836 
	C31.562391,142.563263 32.436916,144.607086 34.805756,145.984955 
	C38.610641,148.400970 42.515694,148.043350 46.255508,147.382355 
	C51.111168,146.524109 52.547760,142.328140 49.762035,137.212952 
	C48.155170,135.366119 46.387802,134.489960 43.997692,134.063507 
	C41.163181,133.319656 38.635441,132.768890 35.818993,131.910645 
	C35.070679,131.519882 34.733128,131.188278 34.286995,130.466553 
	C24.797525,127.388115 15.435958,124.726173 9.931395,115.173569 
	C5.390586,111.848091 6.831024,107.315247 6.763756,102.776352 
	C9.719859,91.063408 17.474993,85.132866 28.478659,82.818115 
	C30.270157,82.441246 32.056202,82.030945 34.286926,81.690689 
	C41.427769,81.297386 48.130299,81.280449 54.744667,82.773720 
	C56.823265,83.242989 58.912930,83.710701 60.697052,85.722260 
	C62.900867,87.433067 64.889565,88.754593 67.199593,90.140465 
	C69.709045,90.194267 69.917114,92.479904 71.498741,93.672363 
	C71.873642,94.070351 72.019905,94.233788 72.365410,94.660301 
	C72.925285,95.482018 73.220520,96.075722 73.634285,96.987350 
	C73.830284,97.517075 73.896202,97.735062 74.034515,98.289398 
	C74.271828,99.785606 74.446655,100.943405 74.908714,102.427254 
	C75.179161,103.848656 75.150940,104.892570 74.664703,106.300812 
	C73.045700,108.453995 70.990120,108.333290 68.590164,108.440292 
	C64.853546,108.546753 61.515072,108.227989 57.825428,109.045197 
	C56.320477,109.292824 55.217514,109.332916 53.702267,109.253937 
	C52.486603,109.090752 51.740341,108.807281 50.793964,108.062889 
	C49.540226,106.365715 49.062508,104.678040 47.942276,102.934296 
	C44.636944,98.023750 40.017441,99.342247 35.375595,99.693565 
	C33.914375,100.287628 33.012375,101.050438 32.453300,102.540749 
	C32.270073,104.153046 32.301075,105.406898 33.841843,106.441597 
	C40.435268,109.977158 47.726860,109.918640 54.281750,112.439827 
	C55.489513,112.904366 56.810631,113.089584 58.358746,113.729179 
	C59.569111,114.234062 60.430363,114.638496 61.710819,114.925568 
	C63.859547,115.648468 65.322052,116.875107 67.239929,118.020859 
	C70.357300,120.062187 72.840492,122.243469 74.660622,125.567780 
	C75.942680,128.039398 76.892578,130.263443 77.789581,132.915039 
	C78.101669,134.008347 78.207291,134.760681 78.306198,135.906158 
	C78.745468,141.149719 77.327255,145.618790 75.264534,150.333435 
	C73.172607,153.286163 71.743874,156.339996 68.219604,157.853882 
z"/>
<path fill="#838384" opacity="1.000000" stroke="none" 
	d="
M7.650661,101.711044 
	C8.377597,106.072380 7.162854,110.347687 9.608141,114.531662 
	C5.670439,113.917480 3.154114,109.557816 2.860220,102.583374 
	C3.021897,102.118622 3.229491,102.061874 3.753529,101.941299 
	C5.061562,101.062614 6.153995,100.980637 7.650661,101.711044 
z"/>
<path fill="#7D7D7E" opacity="1.000000" stroke="none" 
	d="
M35.020325,130.719818 
	C38.030060,131.425369 40.721352,132.025742 43.711693,132.856903 
	C44.624462,133.796707 44.784412,134.609360 44.351875,135.887329 
	C41.775360,137.827408 39.183430,137.421478 36.191345,137.012451 
	C35.234344,136.656662 34.798824,136.295303 34.338055,135.395096 
	C34.175381,133.935577 34.145832,132.885025 34.153313,131.441467 
	C34.360851,130.903870 34.531364,130.759247 35.020325,130.719818 
z"/>
<path fill="#7B7B7B" opacity="1.000000" stroke="none" 
	d="
M30.060459,141.290680 
	C28.668501,140.223434 29.077745,138.919022 28.633305,137.511719 
	C29.794540,135.616714 31.556425,136.128525 33.843422,136.357468 
	C35.536755,138.513351 35.422550,140.396820 34.567535,142.653015 
	C32.320816,144.387833 31.508463,142.552460 30.060459,141.290680 
z"/>
<path fill="#8B8B8B" opacity="1.000000" stroke="none" 
	d="
M34.139889,135.246857 
	C34.453320,135.103333 34.663612,135.268921 34.942608,135.655869 
	C34.889385,135.999603 34.729366,136.170380 34.263206,136.169373 
	C33.957066,135.997620 33.999981,135.995438 33.999058,136.017456 
	C34.023705,135.862183 34.049278,135.684875 34.139889,135.246857 
z"/>
<path fill="#8B8B8B" opacity="1.000000" stroke="none" 
	d="
M35.194267,130.613037 
	C35.148014,130.867981 34.957256,130.910950 34.478420,131.001190 
	C34.190342,131.048477 34.093704,130.612411 34.090874,130.389252 
	C34.408615,130.244415 34.729187,130.322739 35.194267,130.613037 
z"/>
<path fill="#818181" opacity="1.000000" stroke="none" 
	d="
M72.756310,35.291573 
	C72.999687,34.982983 72.994682,34.496159 72.997391,34.252747 
	C74.153954,33.064339 75.463562,33.408825 77.142410,33.575195 
	C78.867523,33.608044 80.180862,33.736538 81.773880,34.437759 
	C84.148178,37.445057 82.723763,41.387466 85.391434,44.387783 
	C84.706161,52.200706 87.062393,58.641178 91.741112,64.378914 
	C92.470848,65.273804 92.810600,66.424438 92.636787,68.026344 
	C91.750710,69.863831 90.455872,70.019463 88.632172,69.655380 
	C82.781967,61.526180 77.530441,53.382553 73.307999,44.674568 
	C72.017784,42.013760 71.060181,38.768661 72.756310,35.291573 
z"/>
<path fill="#9C9D9C" opacity="1.000000" stroke="none" 
	d="
M72.632278,34.973526 
	C72.781052,42.439342 76.248077,48.402821 80.363441,54.275452 
	C83.348480,58.535107 85.923027,63.125816 87.675446,68.702438 
	C86.883339,69.842720 86.149582,70.052696 84.998138,70.202431 
	C83.587814,70.267113 82.583694,70.140228 81.287888,69.598770 
	C77.825500,61.575848 73.239174,54.556458 68.358688,47.294731 
	C68.136787,47.011436 68.005531,46.995556 67.941513,46.979065 
	C66.574471,43.230186 65.510239,39.488922 67.732498,35.234287 
	C68.008423,34.832794 67.970856,34.421951 67.982071,34.216042 
	C69.417152,34.328106 70.841019,34.646088 72.632278,34.973526 
z"/>
<path fill="#5B5B5A" opacity="1.000000" stroke="none" 
	d="
M77.284485,34.576294 
	C75.919220,34.579796 74.803780,34.338272 73.344215,34.053047 
	C75.512909,28.673103 80.730560,27.069851 85.552765,24.932093 
	C89.555176,23.157766 92.987473,20.261553 97.831337,19.282017 
	C98.733162,21.602938 97.323929,22.598833 95.860474,23.323036 
	C91.483871,25.488831 87.940933,29.180397 82.851425,30.092991 
	C80.510071,30.512821 79.290306,32.880756 77.284485,34.576294 
z"/>
<path fill="#6A6A6A" opacity="1.000000" stroke="none" 
	d="
M88.385841,17.995249 
	C88.393021,17.117466 88.604156,16.079624 89.205772,15.375327 
	C91.334251,12.883538 93.684174,10.574371 91.137581,6.958931 
	C90.839630,6.535932 91.503494,5.435469 91.867348,4.320838 
	C96.981796,5.082901 97.079628,5.259460 94.946320,9.270799 
	C94.800591,9.544818 94.470268,9.938478 94.555527,10.086256 
	C98.615791,17.123735 92.029747,16.339157 88.385841,17.995249 
z"/>
<path fill="#5B5B5A" opacity="1.000000" stroke="none" 
	d="
M101.185593,17.582153 
	C101.188828,18.081505 101.137085,18.262589 101.040695,18.722618 
	C100.313110,19.578306 99.543304,19.729189 98.348106,19.239079 
	C98.005974,19.006258 98.000618,19.000645 97.997665,18.997589 
	C98.072563,17.435083 98.767769,16.375584 100.722519,16.013153 
	C101.090034,16.402224 101.110321,16.833055 101.185593,17.582153 
z"/>
<path fill="#535354" opacity="1.000000" stroke="none" 
	d="
M8.182846,101.698547 
	C6.936645,101.983223 5.891551,101.974701 4.458215,101.921829 
	C3.520216,93.743378 8.510790,88.610107 13.975698,83.369720 
	C18.409874,81.314072 23.368444,81.711250 27.555944,79.327568 
	C29.472231,78.236755 31.364870,80.514030 33.582584,79.184082 
	C34.945763,79.956596 34.975655,81.047531 34.231239,82.585144 
	C30.922417,83.633537 27.805103,84.115685 24.838869,85.068275 
	C16.627058,87.705437 10.855166,92.924927 8.182846,101.698547 
z"/>
<path fill="#010101" opacity="1.000000" stroke="none" 
	d="
M92.256493,68.209824 
	C90.410461,65.089722 88.691292,62.289948 86.976059,59.487762 
	C84.360733,55.215099 83.081566,50.764168 85.302933,45.484623 
	C86.860741,39.886383 90.794273,38.114471 95.674164,37.721081 
	C98.087852,37.526505 100.662323,37.940067 102.599609,35.278313 
	C104.299278,32.625500 106.389114,31.858637 109.158875,31.969288 
	C113.802711,32.154808 118.459946,32.005123 123.575264,31.906904 
	C130.006470,30.529181 132.978500,34.135021 135.689438,38.669014 
	C137.064819,37.937950 138.155273,37.811211 139.692505,38.409958 
	C150.967636,40.272377 155.353531,49.115761 149.965439,58.704071 
	C148.505707,61.301731 146.732758,63.723373 145.031479,66.560104 
	C144.491653,67.456833 144.484161,68.146538 144.354858,69.159134 
	C142.023865,73.758385 138.720139,77.356667 136.491180,82.023468 
	C136.309952,84.366264 136.348877,86.356674 136.423676,88.730545 
	C136.597443,92.700874 135.915466,96.346794 137.420410,100.177475 
	C138.813446,102.158943 140.882095,102.623466 142.305298,104.002052 
	C145.625824,107.218498 145.993011,110.222145 143.068329,114.590530 
	C138.101959,114.939468 133.469589,115.000229 128.845764,115.231491 
	C126.595139,115.344063 126.045235,114.380150 126.091698,112.303116 
	C126.202866,107.333618 126.003593,102.356216 126.157539,97.389069 
	C126.232193,94.980423 125.404373,94.380714 123.046295,94.265839 
	C108.992325,93.581177 108.995544,93.515144 108.995537,107.268013 
	C108.995522,115.202797 108.995468,115.219162 100.981071,115.192101 
	C98.664619,115.184273 96.348595,115.052933 93.582115,114.875702 
	C91.776840,113.799355 91.279694,112.367607 90.986710,110.427368 
	C91.008369,108.188385 91.794006,106.615814 93.077576,104.863083 
	C94.818214,102.696487 97.503822,102.682205 99.219810,100.611626 
	C99.755318,96.537178 99.900795,92.766586 100.469063,89.022079 
	C101.024384,85.362854 100.563858,81.788933 97.936958,78.433792 
	C96.375328,75.662865 94.521339,73.528633 92.821869,70.867241 
	C92.332916,69.915535 92.300575,69.229736 92.256493,68.209824 
z"/>
<path fill="#B8B8B8" opacity="1.000000" stroke="none" 
	d="
M143.158264,114.917503 
	C145.755798,108.045975 143.723923,104.325432 136.091614,102.391136 
	C136.526764,101.571877 137.065399,101.015579 137.690353,100.969940 
	C147.885239,100.225395 158.086395,99.387688 168.636292,101.728531 
	C169.031967,102.029549 168.998138,102.000679 168.983612,101.983849 
	C170.686874,103.976402 170.567902,106.272614 169.854309,109.017670 
	C168.226303,111.525223 165.936172,111.214157 163.809860,111.356407 
	C158.261353,111.727631 157.813431,112.247864 157.215820,117.896149 
	C156.793900,121.883904 157.030243,125.576836 160.640564,128.650909 
	C160.629425,135.080170 165.346329,132.439194 168.659088,133.107880 
	C169.665894,133.828857 169.738388,134.584793 169.213348,135.716171 
	C168.971909,136.036545 168.990875,135.998703 169.009155,135.987366 
	C158.350189,136.003571 147.672913,136.031128 136.537140,136.121155 
	C135.168030,135.623505 135.071289,134.709229 134.992554,133.427765 
	C147.102173,132.878662 147.121765,132.878510 147.029541,120.453537 
	C147.011292,117.993530 147.996689,114.758324 143.158264,114.917503 
z"/>
<path fill="#868786" opacity="1.000000" stroke="none" 
	d="
M94.138474,104.698837 
	C93.335640,106.439308 92.659401,107.859726 91.913490,109.614639 
	C85.863686,114.226845 84.847527,119.841156 87.634583,126.688263 
	C88.890350,129.025620 85.806183,133.347626 91.608078,133.102570 
	C92.011658,133.854919 91.994759,134.536667 91.964508,135.559204 
	C91.268768,136.880264 90.221260,137.070862 88.750763,137.203796 
	C87.844933,137.169739 87.345505,137.067490 86.531403,136.735077 
	C84.775940,132.032089 82.154160,127.996681 80.530876,123.166519 
	C80.158691,122.193581 80.108574,121.516808 80.300583,120.504654 
	C81.012299,119.060432 81.766891,117.988365 81.727814,116.290794 
	C81.764557,115.077461 81.838203,114.194672 82.031212,112.983475 
	C82.272964,111.990356 82.548370,111.369225 82.995544,110.453415 
	C83.264465,109.959114 83.380661,109.766991 83.690651,109.302002 
	C85.667107,107.415749 85.769989,105.178749 86.226151,102.706955 
	C86.468788,102.190811 86.596748,101.998032 87.006805,101.598434 
	C88.629829,100.793335 90.032753,100.827362 91.792603,101.059250 
	C92.354431,101.225212 92.571342,101.315636 93.071320,101.615341 
	C93.970673,102.564499 94.345596,103.390442 94.138474,104.698837 
z"/>
<path fill="#646464" opacity="1.000000" stroke="none" 
	d="
M87.916237,126.501907 
	C86.577354,126.910339 85.685265,126.332321 85.221626,125.098869 
	C83.048271,119.316872 85.459427,113.185699 91.491440,110.016624 
	C92.292419,111.316879 92.741020,112.684631 93.160736,114.412788 
	C88.432472,114.450981 87.366234,117.005585 87.956703,121.097183 
	C88.190018,122.713928 87.980446,124.394577 87.916237,126.501907 
z"/>
<path fill="#535354" opacity="1.000000" stroke="none" 
	d="
M87.834381,136.376144 
	C89.102264,136.049377 90.139496,136.003891 91.563950,135.929184 
	C92.717125,135.938019 93.483086,135.976059 94.631729,136.037567 
	C94.859924,142.588440 91.280067,148.184647 89.473740,154.215179 
	C88.079498,158.869949 84.541679,163.222549 83.005913,168.612320 
	C82.999458,168.991547 83.040039,169.095245 83.050507,169.149933 
	C81.938698,170.297455 80.494957,170.285538 78.659653,170.347839 
	C77.417900,170.281693 76.619591,170.118851 75.529907,169.581604 
	C73.660843,167.519135 74.798195,165.935165 75.776085,164.404816 
	C80.312187,157.306015 83.424324,149.648956 84.963669,141.358383 
	C85.308929,139.498886 86.267525,137.968277 87.834381,136.376144 
z"/>
<path fill="#797979" opacity="1.000000" stroke="none" 
	d="
M77.704666,169.428528 
	C79.368172,169.169662 80.787109,169.134705 82.633514,169.152191 
	C84.153801,171.260666 84.813492,173.551086 82.268486,174.753876 
	C78.824387,176.381592 81.192390,180.255356 79.141335,182.007065 
	C76.087685,184.615005 78.099266,186.433014 79.465530,188.654114 
	C80.368942,190.122787 80.108116,191.992813 78.053818,191.846039 
	C73.383781,191.512436 74.675743,194.388840 75.032234,196.826767 
	C75.292015,198.603271 75.665802,200.363098 75.984528,202.538605 
	C73.607925,202.972961 71.235565,202.999069 68.239075,202.716034 
	C67.597786,202.176865 67.580620,201.946823 67.612625,201.375122 
	C68.877045,197.792130 68.718826,194.421539 68.428352,190.766418 
	C68.005638,190.095474 67.773163,189.702332 67.420792,188.974915 
	C67.106003,187.945541 67.119431,187.246048 67.501694,186.240143 
	C68.035133,185.624466 68.439980,185.396133 69.231712,185.184830 
	C72.846825,183.654770 73.703056,180.883759 73.534225,177.288422 
	C73.340942,176.514191 73.319305,176.062332 73.481430,175.285339 
	C75.369423,173.550613 75.917496,171.239014 77.704666,169.428528 
z"/>
<path fill="#8E8E8E" opacity="1.000000" stroke="none" 
	d="
M67.936073,219.660370 
	C63.824318,216.784027 61.320591,207.377960 63.722309,203.390182 
	C64.237717,202.664185 64.647644,202.362930 65.546806,202.146210 
	C66.462326,202.114212 66.954018,202.261597 67.703735,202.786072 
	C67.999245,203.038315 68.007378,203.006302 67.989952,203.002991 
	C68.002228,205.367386 68.031937,207.735107 68.082199,210.545807 
	C68.193932,211.156845 68.285110,211.324860 68.253494,211.751984 
	C68.118378,213.061829 68.106056,214.112564 68.142151,215.554077 
	C68.125084,217.046555 68.059608,218.148239 67.936073,219.660370 
z"/>
<path fill="#626262" opacity="1.000000" stroke="none" 
	d="
M68.271141,211.907837 
	C68.106682,211.841232 68.082657,211.671371 68.080688,211.245148 
	C68.205688,211.260742 68.308640,211.532654 68.271141,211.907837 
z"/>
<path fill="#535354" opacity="1.000000" stroke="none" 
	d="
M72.998756,217.998428 
	C72.909119,218.033661 72.820717,218.070465 72.867752,218.054840 
	C73.003181,218.002411 73.000000,218.000000 72.998756,217.998428 
z"/>
<path fill="#B4B4B4" opacity="1.000000" stroke="none" 
	d="
M68.104950,47.478050 
	C74.553108,52.687698 78.747375,59.721756 80.925575,68.350571 
	C80.723915,68.974274 80.543251,69.222313 79.965454,69.704224 
	C75.944107,70.707115 72.333366,70.992950 68.402908,69.362152 
	C68.026825,68.893364 68.016327,68.698997 67.988632,68.212517 
	C68.005325,61.261826 68.039223,54.603245 68.104950,47.478050 
z"/>
<path fill="#727272" opacity="1.000000" stroke="none" 
	d="
M67.611931,34.882271 
	C67.985939,38.571762 67.963455,42.310730 67.909241,46.506134 
	C64.166412,44.124420 62.918659,40.424496 64.021660,35.529907 
	C65.094269,35.079525 66.154861,35.005634 67.611931,34.882271 
z"/>
<path fill="#7B7B7B" opacity="1.000000" stroke="none" 
	d="
M68.035797,69.548248 
	C71.715599,69.024742 75.393860,68.961754 79.531075,68.931618 
	C82.794510,73.190262 83.920830,77.038025 80.503181,81.976295 
	C77.884300,85.760422 77.842911,91.057129 75.175003,95.131088 
	C74.553894,96.079544 74.394081,97.342995 72.580307,97.412735 
	C71.955521,96.881088 71.702087,96.403862 71.630295,95.716690 
	C71.926064,95.255089 72.064423,95.018433 72.226608,94.796486 
	C72.387856,94.575821 72.305611,94.625160 71.741966,95.080498 
	C69.593079,94.323540 69.024536,92.284790 67.642380,90.520966 
	C68.616554,83.496284 67.754250,76.738007 68.035797,69.548248 
z"/>
<path fill="#868786" opacity="1.000000" stroke="none" 
	d="
M34.437572,82.988174 
	C33.976303,81.899620 33.981812,80.862518 33.945229,79.439240 
	C33.925385,78.587875 33.947639,78.122688 34.005047,77.309830 
	C39.514889,79.137100 45.585182,76.926392 50.988461,79.132561 
	C54.796246,80.687271 59.672596,80.766762 61.158722,85.901482 
	C52.506962,82.851883 43.716232,82.856247 34.437572,82.988174 
z"/>
<path fill="#7D7D7D" opacity="1.000000" stroke="none" 
	d="
M169.016968,101.558533 
	C158.341858,102.018959 147.651749,102.008369 136.494965,102.006226 
	C134.777374,98.031670 135.037201,93.920639 135.070450,89.380707 
	C135.917694,86.569847 135.361969,84.152718 135.340332,81.428970 
	C137.841019,77.165710 140.473022,73.239449 143.380920,69.140411 
	C143.862320,68.820587 144.067810,68.673553 144.644012,68.605377 
	C152.698654,68.765190 160.382568,68.846146 168.534531,68.959030 
	C169.002365,79.689812 169.002167,90.388664 169.016968,101.558533 
z"/>
<path fill="#838384" opacity="1.000000" stroke="none" 
	d="
M195.798462,93.630539 
	C193.624908,94.073456 191.305649,94.276360 188.984055,94.307632 
	C180.602432,94.420517 182.318039,93.667206 181.965881,101.598480 
	C180.785599,103.066566 179.444397,103.274017 177.593842,103.024185 
	C176.934891,102.803375 176.684967,102.677200 176.157211,102.236099 
	C175.901779,101.757088 175.947662,101.592369 175.943207,101.429016 
	C175.549011,86.936478 179.876160,89.282867 189.219681,88.980225 
	C192.622238,88.870010 194.449478,90.471069 195.798462,93.630539 
z"/>
<path fill="#767776" opacity="1.000000" stroke="none" 
	d="
M175.451599,101.932816 
	C176.090958,101.957336 176.302505,101.993500 176.832550,102.076752 
	C178.951752,108.330009 177.185013,110.947464 170.618896,111.066956 
	C169.934723,110.829132 169.674835,110.697021 169.124542,110.237984 
	C168.896881,107.558365 168.959671,105.205666 168.995758,102.410004 
	C170.987320,101.959503 173.005554,101.951981 175.451599,101.932816 
z"/>
<path fill="#727272" opacity="1.000000" stroke="none" 
	d="
M60.307999,202.592087 
	C59.270103,202.871323 58.502434,202.899399 57.352547,202.878906 
	C57.362362,198.791824 54.140186,195.352539 55.692081,190.798615 
	C56.519634,188.370224 58.433105,186.970032 59.159546,184.545532 
	C60.581821,179.798691 62.942265,175.332947 64.961380,170.395782 
	C65.754219,169.986771 66.500046,169.932831 67.619370,169.859131 
	C68.555771,170.289047 68.758812,170.905640 68.782715,171.914673 
	C68.489799,173.180542 67.933151,174.107346 68.672348,175.420563 
	C68.899017,176.409943 68.852745,177.081345 68.531906,178.077240 
	C64.619957,183.985474 62.256134,190.015488 62.289223,196.865204 
	C62.298717,198.831390 62.256001,200.863754 60.307999,202.592087 
z"/>
<path fill="#626262" opacity="1.000000" stroke="none" 
	d="
M87.711426,136.059326 
	C85.285942,147.419189 81.841530,158.474533 74.793266,168.840622 
	C74.057014,169.761795 73.583412,169.955719 72.696487,170.133179 
	C71.016472,170.265442 69.738052,170.229034 68.294907,169.246124 
	C67.995895,169.005341 68.014183,168.512802 68.054222,168.269623 
	C69.000084,166.814667 70.286560,165.992661 71.520401,164.651245 
	C73.483383,162.629532 74.783997,160.682510 74.076736,157.665100 
	C73.791023,156.115158 73.793282,154.916519 74.309906,153.400269 
	C77.952576,149.929459 77.882553,145.096832 80.024300,141.298660 
	C80.971565,139.618759 81.140846,137.524292 82.763908,135.746399 
	C83.800217,135.207001 84.544304,135.195114 85.618637,135.689072 
	C86.415062,135.942245 86.886436,135.983032 87.711426,136.059326 
z"/>
<path fill="#747475" opacity="1.000000" stroke="none" 
	d="
M71.971375,164.667603 
	C71.872261,167.034775 70.228737,167.383835 68.430191,167.978943 
	C68.048859,164.950104 68.003456,161.873749 67.900826,158.336731 
	C69.600159,155.671005 71.356728,153.465958 73.348541,151.039597 
	C74.822792,150.417282 75.230812,151.133774 75.200470,152.584595 
	C74.997795,154.387314 74.995895,155.775223 74.990479,157.579498 
	C73.335846,159.801575 71.703110,161.616074 71.971375,164.667603 
z"/>
<path fill="#969696" opacity="1.000000" stroke="none" 
	d="
M67.975113,169.213776 
	C69.370491,169.048630 70.745087,169.091904 72.527313,169.196930 
	C73.300369,173.546356 73.084305,177.619583 68.485489,180.207581 
	C67.684113,179.778564 67.507591,179.288803 67.754128,178.368866 
	C67.964394,177.255081 67.971039,176.492340 67.948364,175.349152 
	C67.607933,174.584808 67.484291,174.144196 67.704361,173.348083 
	C67.918320,172.242981 67.949577,171.444687 67.986847,170.242889 
	C67.992851,169.839371 67.954330,169.422211 67.975113,169.213776 
z"/>
<path fill="#BDBDBD" opacity="1.000000" stroke="none" 
	d="
M173.435699,169.887558 
	C173.000534,166.687561 172.909424,163.537720 173.038071,160.396881 
	C173.104538,158.773972 172.158432,156.210388 175.011627,156.189072 
	C177.612839,156.169647 179.933945,157.247910 179.978455,160.504974 
	C180.016907,163.319412 179.994965,166.134659 179.999573,169.394180 
	C177.956528,169.873016 175.913666,169.907227 173.435699,169.887558 
z"/>
<path fill="#BABABA" opacity="1.000000" stroke="none" 
	d="
M181.627991,149.701721 
	C181.988632,151.013428 182.056656,152.070374 182.203278,153.516510 
	C174.353592,152.176849 172.996735,150.280853 173.892822,142.493591 
	C174.099838,140.694489 173.970062,138.856613 173.993347,136.607788 
	C174.366592,135.741470 174.841278,135.534042 175.794098,135.701630 
	C177.746201,137.793549 177.445221,140.153992 177.359558,142.359680 
	C177.232346,145.635681 178.397354,147.987946 181.627991,149.701721 
z"/>
<path fill="#7B7B7B" opacity="1.000000" stroke="none" 
	d="
M176.236069,136.278229 
	C175.452866,136.119614 175.033539,136.099762 174.302811,136.129440 
	C172.597748,136.119034 171.204071,136.059082 169.391144,136.017838 
	C168.997772,135.313782 169.023651,134.591003 169.078354,133.508179 
	C171.463913,133.103409 173.820618,133.058716 176.614563,133.092819 
	C177.602188,133.796982 177.772446,134.522919 177.449982,135.681915 
	C177.050735,136.159363 176.825333,136.288177 176.236069,136.278229 
z"/>
<path fill="#9C9D9C" opacity="1.000000" stroke="none" 
	d="
M140.079376,38.240322 
	C138.996552,38.655933 137.916382,38.713245 136.436646,38.686584 
	C136.022675,37.620541 136.008255,36.638474 136.002289,35.284901 
	C137.078873,34.925663 138.147018,34.937931 139.615067,34.985031 
	C140.037308,35.973915 140.059677,36.927967 140.079376,38.240322 
z"/>
<path fill="#BABAB9" opacity="1.000000" stroke="none" 
	d="
M145.008331,68.386909 
	C144.788971,68.733864 144.563232,68.783485 143.997147,68.900375 
	C143.906693,68.383286 144.156586,67.798943 144.682922,67.054504 
	C144.973572,67.292793 144.987762,67.691185 145.008331,68.386909 
z"/>
<path fill="#676766" opacity="1.000000" stroke="none" 
	d="
M67.607559,178.072723 
	C67.983925,178.447632 68.010101,178.877426 68.054962,179.629791 
	C69.273590,181.093506 69.238266,182.506607 68.799858,184.364105 
	C66.635620,189.237671 66.983688,194.071594 66.630791,198.788483 
	C66.547104,199.906952 67.045258,201.072906 66.277328,202.535095 
	C65.570107,202.913086 65.101151,202.958984 64.281578,203.055267 
	C62.890846,203.056839 61.850727,203.008011 60.424194,202.901215 
	C61.802074,196.770187 60.400360,190.146744 63.627125,184.235901 
	C64.768433,182.145248 65.519249,179.864090 67.607559,178.072723 
z"/>
<path fill="#838384" opacity="1.000000" stroke="none" 
	d="
M160.945984,128.468292 
	C157.723343,128.485565 156.227814,126.940933 155.789215,123.484825 
	C155.365417,120.145416 156.154526,117.002174 156.168961,113.764389 
	C156.179901,111.305710 158.075073,110.094925 160.553772,110.064224 
	C163.020386,110.033661 165.487244,110.022530 168.394043,109.956970 
	C168.834106,109.911057 169.031906,110.010155 169.129517,110.062210 
	C170.264450,111.444489 170.275421,112.845360 169.252106,114.660744 
	C161.279739,115.555557 161.285187,115.555641 161.162140,123.577179 
	C161.139465,125.056221 161.052643,126.534279 160.945984,128.468292 
z"/>
<path fill="#535354" opacity="1.000000" stroke="none" 
	d="
M169.450775,115.102104 
	C169.030701,113.655663 169.072357,112.289146 169.170563,110.518448 
	C175.080063,111.247093 176.935913,108.035492 177.097046,102.523529 
	C178.469360,102.073990 179.787674,102.024139 181.503250,102.007584 
	C181.943817,102.367065 182.017670,102.692467 182.026077,103.019554 
	C182.341934,115.309921 182.341095,115.309944 169.450775,115.102104 
z"/>
<path fill="#969696" opacity="1.000000" stroke="none" 
	d="
M175.913055,136.582153 
	C176.077560,136.096054 176.282913,136.052658 176.797791,135.951752 
	C177.560730,135.565659 178.061508,135.456619 178.953918,135.766602 
	C181.446823,139.140823 179.304855,143.184174 181.643295,146.668945 
	C181.925735,147.712967 181.962860,148.461044 181.960297,149.582794 
	C177.721237,150.528915 176.260544,148.063797 176.026749,144.467194 
	C175.866058,141.995285 175.968872,139.506241 175.913055,136.582153 
z"/>
<path fill="#818181" opacity="1.000000" stroke="none" 
	d="
M202.777832,111.274498 
	C205.714111,110.964050 208.347763,110.934784 210.975616,111.044731 
	C213.010925,111.129883 214.263260,112.340668 214.945694,114.600235 
	C211.298599,115.040344 207.610306,115.107887 203.466797,115.102348 
	C202.173920,113.995270 201.937637,112.866333 202.777832,111.274498 
z"/>
<path fill="#797979" opacity="1.000000" stroke="none" 
	d="
M181.942444,146.511017 
	C178.869690,146.703552 178.979507,144.475220 178.972107,142.322769 
	C178.965988,140.543686 178.964005,138.764603 178.947174,136.542801 
	C179.555923,135.410172 180.326691,135.285919 181.534546,135.734985 
	C181.919312,139.328125 181.957794,142.692627 181.942444,146.511017 
z"/>
<path fill="#5B5B5A" opacity="1.000000" stroke="none" 
	d="
M203.041428,110.626205 
	C203.068771,112.025970 203.054581,113.118568 203.026001,114.620224 
	C197.764618,115.879272 200.302536,111.971802 199.968475,109.451141 
	C200.766525,109.024994 201.462158,109.029732 202.502594,109.061783 
	C202.898239,109.499077 202.949081,109.909058 203.041428,110.626205 
z"/>
<path fill="#535354" opacity="1.000000" stroke="none" 
	d="
M181.949249,135.554260 
	C181.143936,135.984253 180.407028,136.004883 179.302155,136.062790 
	C178.528137,136.051804 178.122116,136.003525 177.411713,135.924759 
	C177.079926,135.214325 177.052521,134.534378 177.038452,133.513031 
	C178.759552,133.697357 181.741165,131.017288 181.949249,135.554260 
z"/>
<path fill="#535354" opacity="1.000000" stroke="none" 
	d="
M97.964622,19.356871 
	C98.753494,19.004967 99.501022,19.003675 100.622299,19.001974 
	C100.960342,21.124954 101.091293,23.224243 101.946167,25.613607 
	C101.968414,26.174957 101.940598,26.348797 101.868073,26.782896 
	C98.248367,28.748714 94.379143,29.728792 90.879074,31.666393 
	C89.211510,32.589535 87.796951,33.531963 86.718887,35.505028 
	C85.111862,36.213844 83.850204,36.214611 82.316315,35.243645 
	C80.619095,34.976570 79.237167,34.954311 77.444946,34.876686 
	C77.858620,31.019434 80.522942,29.295052 84.028351,28.209623 
	C89.347488,26.562584 93.961792,23.637295 97.964622,19.356871 
z"/>
<path fill="#6C6C6C" opacity="1.000000" stroke="none" 
	d="
M81.996719,35.433159 
	C83.390617,34.977379 84.780205,34.955925 86.586044,34.911438 
	C87.178543,34.726303 87.354797,34.564209 87.859444,34.253006 
	C88.421585,34.044456 88.655334,33.985016 89.247604,33.874062 
	C90.089615,33.780174 90.573914,33.750889 91.425674,33.714668 
	C93.770073,33.668362 95.748009,33.697330 98.105827,33.669460 
	C98.740822,33.685028 98.995705,33.701286 99.630722,33.780769 
	C100.515472,33.974133 100.976585,34.195053 101.692276,34.752167 
	C101.990372,34.997528 102.414635,34.989429 102.626472,34.988998 
	C103.319527,37.992470 102.074310,39.205830 99.039131,38.878796 
	C93.575592,38.290100 89.034714,39.922932 85.674286,44.897018 
	C80.708046,43.357498 82.283661,39.264591 81.996719,35.433159 
z"/>
<path fill="#4B4B4B" opacity="1.000000" stroke="none" 
	d="
M88.218132,34.759781 
	C87.995392,34.912861 87.498482,34.922874 87.250381,34.905640 
	C86.693314,34.010029 85.637054,32.746796 86.874962,32.283001 
	C91.586906,30.517616 95.456734,26.445854 101.424500,27.029755 
	C101.867302,29.399572 101.911232,31.755989 101.972771,34.554966 
	C101.555748,34.977825 101.121132,34.958122 100.360161,34.930374 
	C99.856003,34.809616 99.678192,34.696903 99.231964,34.750526 
	C96.611496,34.925568 94.259453,34.934273 91.466675,34.934227 
	C90.739334,34.696789 90.416534,34.552101 89.781097,34.497826 
	C89.148880,34.480957 88.792511,34.522152 88.218132,34.759781 
z"/>
<path fill="#BABABA" opacity="1.000000" stroke="none" 
	d="
M67.640083,107.458366 
	C69.808548,106.943680 71.714607,106.754967 73.909630,106.281418 
	C78.237320,104.467239 78.659317,108.100403 80.354515,110.512589 
	C80.825119,111.561180 80.906975,112.302155 80.720886,113.421913 
	C79.906487,115.019249 79.182068,116.259048 79.060562,118.117615 
	C78.100052,121.299728 78.578568,124.889526 74.356674,126.054070 
	C71.936020,123.737320 70.204514,121.102814 67.078079,119.475937 
	C66.933395,118.396881 66.800697,117.603905 66.639832,116.402405 
	C66.657463,113.238747 66.126228,110.427322 67.640083,107.458366 
z"/>
<path fill="#707070" opacity="1.000000" stroke="none" 
	d="
M72.211098,97.558716 
	C73.834068,94.046516 75.569496,90.783066 77.049072,87.407486 
	C78.212769,84.752541 77.873947,81.570168 80.263008,79.284248 
	C81.955063,77.665237 82.821716,75.652336 80.605667,73.543633 
	C79.516525,72.507248 80.140053,71.013748 79.993469,69.345146 
	C79.990021,68.964470 80.454094,68.872765 80.679337,68.799500 
	C81.989616,68.789238 83.074638,68.852249 84.567123,68.924751 
	C87.242691,72.097221 86.422791,75.512482 85.695526,78.873901 
	C85.385368,80.307465 84.883316,81.777107 84.130272,83.009384 
	C80.572029,88.832085 80.778412,95.105583 81.435600,101.846741 
	C80.350082,102.962006 79.277718,103.167374 77.751831,103.247391 
	C76.795914,103.194931 76.269440,103.073524 75.419220,102.674965 
	C73.944473,101.310173 74.085709,99.570534 72.829735,98.183594 
	C72.467194,98.069206 72.213234,97.759109 72.211098,97.558716 
z"/>
<path fill="#838384" opacity="1.000000" stroke="none" 
	d="
M49.881218,135.756485 
	C54.916321,140.735336 53.452915,147.170319 46.982281,148.738602 
	C42.872581,149.734650 38.460983,150.082809 34.285301,147.093796 
	C33.494881,146.202713 33.244694,145.479630 33.527531,144.300323 
	C34.618446,143.234909 35.661655,142.730057 36.825699,142.608963 
	C41.278137,142.145782 44.465572,139.860092 46.886635,135.737961 
	C47.987137,135.207138 48.757050,135.337112 49.881218,135.756485 
z"/>
<path fill="#5B5B5A" opacity="1.000000" stroke="none" 
	d="
M59.220604,114.882019 
	C51.172169,113.121178 43.400787,111.024673 35.594772,109.066208 
	C34.555019,108.805336 33.834103,108.267792 32.816879,107.399368 
	C32.582211,106.119331 32.884808,105.253807 33.673271,104.217880 
	C34.136909,103.888557 34.352768,103.805046 34.907814,103.788116 
	C36.768452,105.371239 38.609352,105.947807 41.072407,105.711021 
	C42.370499,105.725037 43.306911,105.842789 44.558029,106.235405 
	C47.442146,108.169510 50.305454,109.169914 53.726120,109.717468 
	C55.327862,109.966507 56.505104,110.376587 58.012486,111.010834 
	C58.795780,111.481201 59.156021,111.851784 59.569756,112.670006 
	C59.763077,113.576775 59.691845,114.092377 59.220604,114.882019 
z"/>
<path fill="#727272" opacity="1.000000" stroke="none" 
	d="
M75.336746,152.968384 
	C74.733101,152.381958 74.466499,151.764526 73.891838,150.982697 
	C75.610855,146.408401 77.265930,141.906311 77.076889,136.509766 
	C78.170540,134.950851 79.503296,134.752045 81.350555,134.994034 
	C82.005463,135.217743 82.253235,135.345734 82.770302,135.793839 
	C82.387047,141.571152 78.098732,145.872101 78.086273,151.582108 
	C78.085289,152.035614 76.514862,152.485703 75.336746,152.968384 
z"/>
<path fill="#7E7E7E" opacity="1.000000" stroke="none" 
	d="
M59.303040,113.198830 
	C58.926933,112.624977 58.735123,112.370163 58.241245,112.070961 
	C57.125748,111.038567 56.173767,110.138382 56.773197,108.335548 
	C60.250221,106.774994 63.658676,107.082809 67.466560,107.078323 
	C67.936707,110.128624 67.970924,113.124847 67.966309,116.572311 
	C66.359367,118.218872 65.112877,117.590408 64.238594,116.174927 
	C63.582790,115.113167 62.862961,114.372009 61.219948,114.238899 
	C60.392700,113.994720 59.964691,113.757057 59.303040,113.198830 
z"/>
<path fill="#747475" opacity="1.000000" stroke="none" 
	d="
M35.194576,104.392738 
	C34.914963,104.197159 34.684650,104.153267 34.584831,104.091789 
	C34.231544,103.955978 33.978073,103.881638 33.600723,103.425903 
	C33.515503,102.776237 33.554161,102.507957 33.832249,101.903458 
	C34.309334,101.421127 34.546997,101.275024 35.183830,100.990471 
	C39.835663,100.548782 44.111267,99.835289 48.607212,101.797318 
	C49.609634,103.470131 50.255272,104.906342 50.860249,106.681824 
	C49.266407,108.595512 47.505531,108.111923 45.358780,107.279602 
	C43.921719,107.016190 42.861038,107.007401 41.402584,106.995979 
	C39.273811,105.932877 36.944839,106.247505 35.194576,104.392738 
z"/>
<path fill="#B8B8B8" opacity="1.000000" stroke="none" 
	d="
M74.032303,126.397491 
	C77.037315,124.520103 76.804321,121.315163 77.852303,118.340508 
	C78.593613,117.529663 79.164246,117.766457 79.991013,118.230293 
	C80.554169,118.704117 80.810944,119.034294 81.093239,119.708092 
	C81.137291,120.744629 81.107025,121.475494 81.086670,122.572266 
	C81.211647,123.138748 81.326714,123.339325 81.391937,123.884064 
	C80.277473,127.370651 80.727348,131.158752 77.129906,133.220581 
	C75.905304,130.969910 75.000671,128.856430 74.032303,126.397491 
z"/>
<path fill="#B4B4B4" opacity="1.000000" stroke="none" 
	d="
M48.855492,101.691406 
	C44.279644,102.041183 39.595299,102.048431 34.443542,102.043190 
	C33.375977,101.368011 33.266090,100.614769 33.782364,99.446487 
	C39.307716,97.289703 44.422112,96.723892 48.855492,101.691406 
z"/>
<path fill="#ACACAC" opacity="1.000000" stroke="none" 
	d="
M76.845703,133.458633 
	C79.515221,130.694809 78.559326,126.895035 80.612823,124.047379 
	C81.901123,126.052040 82.557877,128.239777 83.494949,130.326645 
	C84.283150,132.081985 84.098732,133.878601 82.260269,135.588318 
	C80.615807,135.927460 79.274437,135.988831 77.530975,136.067719 
	C77.046417,135.334793 76.963951,134.584335 76.845703,133.458633 
z"/>
<path fill="#B6B6B6" opacity="1.000000" stroke="none" 
	d="
M74.691025,101.763374 
	C75.460663,101.927536 75.895348,101.980980 76.655548,102.079254 
	C79.651711,104.364983 83.743172,105.989365 80.345535,110.855942 
	C77.144875,110.554726 78.278687,105.976509 74.543526,106.046936 
	C74.103584,104.974396 74.008583,103.952209 73.890381,102.545685 
	C74.030151,101.991791 74.193115,101.822220 74.691025,101.763374 
z"/>
<path fill="#676766" opacity="1.000000" stroke="none" 
	d="
M45.051624,107.376945 
	C46.651047,107.021011 48.319695,107.017029 50.403961,107.017075 
	C51.334419,107.342133 51.849247,107.663170 52.677437,108.057602 
	C53.682304,108.736298 54.312744,109.377167 54.154114,110.692360 
	C50.811283,110.533722 47.623383,110.063026 45.051624,107.376945 
z"/>
<path fill="#6C6C6C" opacity="1.000000" stroke="none" 
	d="
M60.859287,113.318985 
	C64.915123,111.454033 64.348679,116.830185 67.550827,116.997238 
	C67.785133,117.657150 67.642792,118.290741 67.193344,119.064926 
	C65.386513,118.400414 63.886799,117.595314 62.210953,116.520172 
	C61.484337,115.442123 60.667042,114.770828 60.859287,113.318985 
z"/>
<path fill="#707070" opacity="1.000000" stroke="none" 
	d="
M54.348320,111.032661 
	C53.686512,110.244263 53.370571,109.493004 53.022717,108.436371 
	C54.060978,108.047188 55.131153,107.963379 56.599052,107.951553 
	C57.312904,109.110657 57.629044,110.197777 57.984692,111.623726 
	C56.914196,111.664970 55.804192,111.367386 54.348320,111.032661 
z"/>
<path fill="#717171" opacity="1.000000" stroke="none" 
	d="
M50.067257,135.622925 
	C49.399689,135.965027 48.560463,135.996292 47.302391,136.056396 
	C46.185375,136.625580 45.422718,136.710464 44.321461,136.118088 
	C44.027645,135.143112 44.017559,134.457932 44.009109,133.430237 
	C46.301876,132.957382 48.085316,134.170242 50.067257,135.622925 
z"/>
<path fill="#6A6A6A" opacity="1.000000" stroke="none" 
	d="
M34.271988,143.577362 
	C34.125256,144.567719 34.062164,145.332748 33.983608,146.481689 
	C31.688040,145.896683 30.698803,143.887573 29.789207,141.417557 
	C31.407963,140.723984 32.004517,142.565735 33.707092,142.928284 
	C34.054352,142.977524 34.355633,143.352066 34.271988,143.577362 
z"/>
<path fill="#969696" opacity="1.000000" stroke="none" 
	d="
M34.369465,104.020386 
	C34.083920,104.945015 33.682827,105.859711 32.938416,106.929611 
	C30.276749,106.246910 31.011852,104.355133 31.161713,102.319046 
	C31.587677,101.657303 31.984840,101.496490 32.736099,101.556656 
	C33.484650,102.207771 33.461475,102.884354 33.808144,103.759438 
	C34.022057,104.004395 34.253918,104.010468 34.369465,104.020386 
z"/>
<path fill="#626262" opacity="1.000000" stroke="none" 
	d="
M60.681282,112.972496 
	C61.334660,113.836769 61.658211,114.695564 62.008293,115.902252 
	C61.125786,116.090538 60.216751,115.930931 59.131050,115.472916 
	C58.970703,114.679245 58.987022,114.183983 59.018532,113.316269 
	C59.472961,112.951538 59.912205,112.959274 60.681282,112.972496 
z"/>
<path fill="#7B7B7B" opacity="1.000000" stroke="none" 
	d="
M75.012108,101.513092 
	C74.832642,101.920952 74.639320,101.967812 74.156601,102.088013 
	C72.705437,101.316116 73.157188,99.872437 72.543083,98.432571 
	C74.259621,98.317917 74.957764,99.465034 75.012108,101.513092 
z"/>
<path fill="#7D7D7E" opacity="1.000000" stroke="none" 
	d="
M33.265354,102.267410 
	C32.613438,101.985725 32.222225,101.966370 31.537453,101.945694 
	C31.315248,100.519981 32.484921,99.942101 33.696465,99.133255 
	C33.998444,99.837372 33.993813,100.568398 33.982658,101.665062 
	C33.976135,102.030693 33.989342,101.991119 34.010063,101.990067 
	C33.862545,102.169258 33.694302,102.349495 33.265354,102.267410 
z"/>
<path fill="#B4B4B4" opacity="1.000000" stroke="none" 
	d="
M34.582733,143.872238 
	C34.188343,143.802673 34.135147,143.387939 34.094749,143.182739 
	C34.031513,140.941910 34.008671,138.906311 33.971451,136.434158 
	C34.140423,135.979111 34.323780,135.960617 34.778267,135.885483 
	C37.745468,135.863831 40.441536,135.898804 43.587669,135.881012 
	C44.749138,135.902466 45.460545,135.976669 46.527744,136.068054 
	C46.017609,141.589569 42.825054,143.696213 34.582733,143.872238 
z"/>
<path fill="#5B5B5A" opacity="1.000000" stroke="none" 
	d="
M93.205322,101.677628 
	C91.291893,101.952637 89.568611,101.933388 87.416374,101.875381 
	C82.657394,97.421577 81.983620,92.556496 84.664993,86.931297 
	C86.606651,82.857941 86.852570,78.327309 86.968437,73.857056 
	C87.006638,72.383446 86.643135,70.881409 87.710526,69.209457 
	C87.924797,68.905190 87.889137,68.811722 87.892166,68.759148 
	C89.157913,68.998329 90.409683,69.146591 91.861443,68.157402 
	C92.443436,68.318153 92.759003,68.745735 93.104950,69.451050 
	C93.661415,74.767097 94.061752,79.545128 91.518860,84.525291 
	C89.362335,88.748795 89.315041,93.814598 92.127678,98.274162 
	C92.740570,99.245934 93.631638,100.076492 93.205322,101.677628 
z"/>
<path fill="#646464" opacity="1.000000" stroke="none" 
	d="
M87.557159,68.884491 
	C88.688187,76.320015 88.121414,83.412727 84.616539,90.291725 
	C82.706833,94.039894 85.926010,97.547691 86.984535,101.483185 
	C86.987419,101.836632 86.985878,101.985603 86.993820,102.059662 
	C86.102219,102.850830 85.070892,103.184235 83.510956,103.159210 
	C82.542397,103.021317 82.029137,102.815697 81.290527,102.190033 
	C78.063805,94.655746 79.625252,87.801048 83.188919,81.388603 
	C85.283806,77.619080 84.941689,73.777519 84.982574,69.393433 
	C85.712898,68.910759 86.451218,68.887276 87.557159,68.884491 
z"/>
<path fill="#4B4B4B" opacity="1.000000" stroke="none" 
	d="
M97.682205,76.867615 
	C102.538261,80.355598 102.528008,85.185349 101.786018,89.921135 
	C101.196335,93.684830 101.082062,97.431366 100.828445,101.657043 
	C99.677505,102.692947 98.522285,102.442131 97.002090,102.235794 
	C90.057388,94.650246 93.213699,86.630325 95.156631,78.712265 
	C95.394356,77.743423 96.262688,77.108635 97.682205,76.867615 
z"/>
<path fill="#515151" opacity="1.000000" stroke="none" 
	d="
M98.020508,76.619125 
	C94.224785,81.274757 92.961624,93.317993 95.818245,97.952698 
	C96.401115,98.898376 96.610023,100.074532 97.004311,101.523682 
	C96.070824,102.890625 94.963921,103.063759 93.338837,102.313690 
	C92.955559,102.075539 92.977379,102.019417 92.996277,101.995651 
	C91.692055,99.171921 88.796646,97.232841 88.988968,93.565994 
	C89.189934,89.734367 87.671333,85.632050 91.354073,82.555695 
	C92.322083,81.747070 92.617775,80.689209 92.260429,79.418541 
	C91.408936,76.390686 92.420616,73.506317 93.084023,70.162064 
	C94.735329,71.915482 96.335320,74.102188 98.020508,76.619125 
z"/>
<path fill="#747475" opacity="1.000000" stroke="none" 
	d="
M93.001190,102.386383 
	C94.039246,102.039055 95.122925,102.002579 96.611954,101.934509 
	C98.015305,101.953133 99.013313,102.003349 100.383575,102.084793 
	C99.197411,104.084015 96.205948,102.747215 94.338745,104.887894 
	C93.690186,104.245003 93.368500,103.471115 93.001190,102.386383 
z"/>
<path fill="#969696" opacity="1.000000" stroke="none" 
	d="
M135.065247,81.506905 
	C136.635864,83.441704 136.030258,85.914810 135.397919,88.650238 
	C135.070312,86.591484 134.995880,84.256660 135.065247,81.506905 
z"/>
<path fill="#ACACAC" opacity="1.000000" stroke="none" 
	d="
M80.622955,101.916481 
	C81.454323,101.939880 81.882706,102.011795 82.632980,102.134834 
	C85.445023,104.118370 85.691162,106.526413 84.226151,109.624641 
	C84.000305,110.000000 84.000000,110.000000 84.000000,110.000153 
	C83.567993,110.398972 83.198784,110.840782 82.987625,111.706161 
	C82.935989,113.029709 82.922859,114.064751 82.884018,115.487137 
	C81.941437,116.564491 80.944618,116.452522 79.743874,115.917389 
	C79.436974,115.261154 79.445961,114.854958 79.780815,114.223045 
	C79.993797,113.248428 79.992897,112.500412 79.988815,111.378525 
	C82.766220,106.944283 78.364662,105.421432 77.033157,102.459793 
	C78.060699,102.071053 79.140327,102.018021 80.622955,101.916481 
z"/>
<path fill="#9C9D9C" opacity="1.000000" stroke="none" 
	d="
M82.226837,135.932190 
	C84.223969,131.946991 80.806793,128.521515 80.977921,124.378357 
	C80.976280,123.800453 80.991432,123.627144 81.051575,123.195999 
	C82.601181,127.086174 86.785934,130.165756 85.969864,135.564972 
	C85.216896,135.944901 84.490112,135.988342 83.401459,136.072876 
	C82.858559,136.075394 82.677528,136.036850 82.226837,135.932190 
z"/>
<path fill="#9C9D9C" opacity="1.000000" stroke="none" 
	d="
M84.329178,109.840584 
	C83.980377,107.610100 84.263084,105.181511 83.026199,102.562012 
	C84.034149,102.143280 85.113419,102.100609 86.597229,102.095825 
	C86.948837,104.875702 87.703842,107.868576 84.329178,109.840584 
z"/>
<path fill="#9C9D9C" opacity="1.000000" stroke="none" 
	d="
M79.792137,116.372772 
	C80.799156,115.731850 81.509605,115.117867 82.625534,115.794624 
	C82.834564,117.280487 83.576050,118.879021 81.511749,119.935974 
	C80.870575,119.829460 80.573601,119.645172 80.146179,119.230469 
	C79.476730,118.310844 79.294838,117.547554 79.792137,116.372772 
z"/>
<path fill="#9C9D9C" opacity="1.000000" stroke="none" 
	d="
M83.205582,111.835876 
	C81.892357,111.053543 82.214241,110.446838 83.709885,110.027397 
	C83.820686,110.559235 83.641373,111.118156 83.205582,111.835876 
z"/>
<path fill="#818181" opacity="1.000000" stroke="none" 
	d="
M77.582825,169.142975 
	C77.165710,171.277557 77.538139,174.003815 74.363937,174.966858 
	C72.322266,173.104828 73.957138,171.497498 74.743317,169.485901 
	C75.009193,169.181168 75.006844,169.040009 74.998672,168.968933 
	C75.732468,168.959030 76.474442,169.020172 77.582825,169.142975 
z"/>
<path fill="#8B8B8B" opacity="1.000000" stroke="none" 
	d="
M74.663086,169.141022 
	C74.677719,170.870834 74.346245,172.560516 74.013161,174.629562 
	C74.011169,175.451004 74.010796,175.893066 74.011047,176.666763 
	C73.619743,180.166977 72.534836,183.062302 70.307991,185.829620 
	C69.568810,186.024918 69.131058,186.016769 68.365311,185.992950 
	C67.880081,185.835587 67.722855,185.693909 67.756821,185.298798 
	C67.969261,183.631241 67.990524,182.217117 68.042717,180.377670 
	C72.412216,177.951614 70.145088,172.727158 72.938995,169.616638 
	C73.395630,169.206070 73.856300,169.153473 74.663086,169.141022 
z"/>
<path fill="#5B5B5A" opacity="1.000000" stroke="none" 
	d="
M67.674339,185.296143 
	C67.948006,185.045364 68.000793,185.510696 68.019058,185.743988 
	C68.021782,186.742340 68.006248,187.507416 68.015572,188.654236 
	C68.176453,189.298126 68.312469,189.560242 68.613174,190.233826 
	C68.860641,194.150284 69.152290,197.662048 68.253815,201.542755 
	C68.057755,202.126556 68.044830,202.308716 68.015579,202.764587 
	C67.562759,203.008316 67.126274,202.978333 66.364426,202.907776 
	C63.965569,196.895081 66.028297,191.248123 67.674339,185.296143 
z"/>
<path fill="#818181" opacity="1.000000" stroke="none" 
	d="
M70.223808,186.273682 
	C71.125450,183.137741 72.244339,180.242416 73.687454,177.172745 
	C74.456718,177.158401 75.302010,177.370331 75.288956,177.470901 
	C74.819824,181.087463 74.020195,184.557693 70.223808,186.273682 
z"/>
<path fill="#818181" opacity="1.000000" stroke="none" 
	d="
M68.335770,201.709991 
	C68.062019,198.261017 68.053360,194.577652 68.075455,190.433105 
	C68.259651,189.855759 68.413109,189.739548 68.785416,189.811676 
	C71.879654,192.520767 68.969490,195.546341 69.669395,198.310501 
	C69.898979,199.217209 68.989479,200.412338 68.335770,201.709991 
z"/>
<path fill="#8B8B8B" opacity="1.000000" stroke="none" 
	d="
M68.902008,189.786163 
	C69.004272,190.000000 68.554169,189.990707 68.330185,189.981323 
	C68.106201,189.971954 68.045761,189.505539 68.043091,189.270782 
	C68.360138,189.120499 68.613243,189.299271 68.902008,189.786163 
z"/>
<path fill="#707070" opacity="1.000000" stroke="none" 
	d="
M71.581223,95.288284 
	C71.696419,95.021034 71.889198,94.825867 72.081978,94.630707 
	C72.099525,94.825714 72.117073,95.020721 71.973282,95.361237 
	C71.811943,95.506744 71.658813,95.360382 71.581223,95.288284 
z"/>
<path fill="#676766" opacity="1.000000" stroke="none" 
	d="
M67.603218,173.072205 
	C67.909355,173.469604 67.931656,173.897934 67.936508,174.647491 
	C67.276550,174.905167 66.535316,174.846909 66.482117,174.055786 
	C66.462120,173.758347 67.023201,173.421844 67.603218,173.072205 
z"/>
<path fill="#6A6A6A" opacity="1.000000" stroke="none" 
	d="
M72.327820,164.949005 
	C69.089066,161.489731 71.032654,159.545563 74.617233,158.004700 
	C76.824310,161.170319 74.679230,163.009796 72.327820,164.949005 
z"/>
<path fill="#5B5B5A" opacity="1.000000" stroke="none" 
	d="
M88.834854,34.237259 
	C89.554428,34.161819 90.106079,34.317993 90.841835,34.699814 
	C90.571007,34.939957 90.116089,34.954449 89.319901,34.958801 
	C88.874741,34.788734 88.770844,34.628803 88.834854,34.237259 
z"/>
<path fill="#535354" opacity="1.000000" stroke="none" 
	d="
M88.790451,34.102852 
	C89.002769,34.005646 88.995155,34.477829 88.986893,34.713245 
	C88.978638,34.948662 88.486015,34.956581 88.240707,34.934723 
	C88.117844,34.616573 88.312096,34.378971 88.790451,34.102852 
z"/>
<path fill="#5B5B5A" opacity="1.000000" stroke="none" 
	d="
M99.231018,34.934875 
	C99.251312,34.817352 99.539093,34.717850 99.930344,34.770340 
	C99.855377,34.932522 99.676941,34.942707 99.231018,34.934875 
z"/>
<path fill="#B4B4B4" opacity="1.000000" stroke="none" 
	d="
M80.030121,115.707260 
	C80.039696,116.786682 80.032967,117.523949 80.020981,118.630630 
	C79.517593,118.738869 79.019470,118.477676 78.261803,118.107086 
	C78.195778,116.632378 77.416336,114.944839 79.638382,114.064896 
	C80.001060,114.452660 80.007439,114.908875 80.030121,115.707260 
z"/>
<path fill="#676766" opacity="1.000000" stroke="none" 
	d="
M34.997688,104.547684 
	C37.167988,104.048233 38.793411,105.487175 40.806442,106.720352 
	C38.863033,106.767136 36.257496,107.852280 34.997688,104.547684 
z"/>
<path fill="#ACACAC" opacity="1.000000" stroke="none" 
	d="
M33.012184,102.307236 
	C33.175659,102.002693 33.346672,102.000298 33.774235,101.993454 
	C34.039597,102.436951 34.048412,102.884895 34.039642,103.668610 
	C33.687943,103.539391 33.353832,103.074394 33.012184,102.307236 
z"/>
</svg>